<?xml version="1.0" encoding="UTF-8"?>
<svg version="1.1" xmlns="http://www.w3.org/2000/svg" width="512" height="512">
<path d="M0 0 C0.97088562 0.00215515 1.94177124 0.0043103 2.94207764 0.00653076 C17.28085186 0.05758363 31.28046967 0.45300087 45.375 3.3125 C46.39045898 3.51117676 47.40591797 3.70985352 48.45214844 3.91455078 C93.54117782 12.93370784 136.04772206 33.21745617 169.6796875 64.8046875 C171.84499326 66.8193633 174.04130151 68.73391841 176.3125 70.625 C187.8808539 80.73535888 197.4064128 92.91076353 206.375 105.3125 C206.8194043 105.92673828 207.26380859 106.54097656 207.72167969 107.17382812 C226.74170755 133.81063886 239.5640868 164.36801526 247.0625 196.125 C247.34830933 197.31246826 247.34830933 197.31246826 247.63989258 198.52392578 C251.58677574 216.13415699 252.90325651 233.74850619 252.75 251.75 C252.74534729 252.73207428 252.74069458 253.71414856 252.73590088 254.72598267 C252.65619262 269.10427217 252.25895067 283.18295554 249.375 297.3125 C249.17632324 298.32650879 248.97764648 299.34051758 248.77294922 300.38525391 C240.81229289 340.18853555 224.22149391 376.2566607 199.375 408.3125 C198.70082031 409.18261719 198.02664063 410.05273438 197.33203125 410.94921875 C159.2327731 458.7698636 105.17423885 489.79809223 45.375 501.3125 C44.55209473 501.47766113 43.72918945 501.64282227 42.88134766 501.81298828 C15.36866502 507.10325754 -17.1942471 506.98730074 -44.625 501.3125 C-46.09163086 501.01448486 -46.09163086 501.01448486 -47.58789062 500.71044922 C-92.98699113 491.21079418 -135.80100363 471.45975125 -169.625 439.3125 C-171.03511447 438.07582207 -172.451336 436.84605527 -173.875 435.625 C-213.68759488 400.92074214 -239.08661818 348.54669106 -248.625 297.3125 C-248.78726074 296.4968457 -248.94952148 295.68119141 -249.11669922 294.84082031 C-254.42709968 267.2530433 -254.20763196 234.82940828 -248.625 207.3125 C-248.42632324 206.29704102 -248.22764648 205.28158203 -248.02294922 204.23535156 C-240.65153177 167.38378598 -225.93260367 131.06507381 -202.625 101.3125 C-202.13032227 100.67795898 -201.63564453 100.04341797 -201.12597656 99.38964844 C-185.17499991 79.06074219 -167.59050061 61.4741607 -146.625 46.3125 C-146.01076172 45.8680957 -145.39652344 45.42369141 -144.76367188 44.96582031 C-116.53225964 24.80716646 -84.05944962 11.70746174 -50.25 4.5 C-49.33669922 4.30494873 -48.42339844 4.10989746 -47.48242188 3.90893555 C-31.66580831 0.73244166 -16.09182705 -0.06438246 0 0 Z " fill="#1A263C" transform="translate(255.625,7.6875)"/>
<path d="M0 0 C10.24079142 5.88347844 19.02584109 13.38354773 28 21 C28.70366699 21.59248535 29.40733398 22.1849707 30.13232422 22.79541016 C32.15709104 24.50210107 34.17387933 26.21767983 36.1875 27.9375 C36.7865918 28.4442627 37.38568359 28.95102539 38.00292969 29.47314453 C42.19083665 33.08932762 45.31447361 36.70021921 49 41 C-44.06 134.06 -137.12 227.12 -233 323 C-262.05076457 308.47461771 -283.38893233 255.61863661 -293 227.21484375 C-296.15444273 217.48006745 -298.67941394 207.63108373 -300.8125 197.625 C-301.00755127 196.71169922 -301.20260254 195.79839844 -301.40356445 194.85742188 C-304.58005834 179.04080831 -305.37688246 163.46682705 -305.3125 147.375 C-305.31034485 146.40411438 -305.3081897 145.43322876 -305.30596924 144.43292236 C-305.25495115 130.1039185 -304.89610263 116.08036078 -302 102 C-301.66210449 100.34919434 -301.66210449 100.34919434 -301.31738281 98.66503906 C-299.72380257 91.06376546 -298.04846962 83.49250028 -296 76 C-295.8453125 75.28714844 -295.690625 74.57429688 -295.53125 73.83984375 C-294.69372305 70.93929085 -293.52635401 69.29376475 -290.89941406 67.82763672 C-287.96504766 66.68794491 -285.03982855 65.81911007 -282 65 C-280.84822266 64.68450195 -279.69644531 64.36900391 -278.50976562 64.04394531 C-274.60083535 63.01890494 -270.68153311 62.05856364 -266.75 61.125 C-266.03280792 60.9535849 -265.31561584 60.7821698 -264.57669067 60.6055603 C-236.72409764 53.97001413 -208.90946787 49.539809 -180.48535156 46.28643799 C-178.04822764 46.00555826 -175.61190457 45.71861932 -173.17578125 45.42919922 C-157.61027898 43.58039809 -142.08592463 41.90677117 -126.4375 40.9375 C-83.97354547 38.29646322 -33.99824788 26.8863695 0 0 Z " fill="#DD7924" transform="translate(309,113)"/>
<path d="M0 0 C3.5254184 1.6482833 5.50063059 3.41568169 8.0625 6.375 C11.43789869 10.23102011 14.87100571 14.01040095 18.375 17.75 C23.8703857 23.68424324 28.84583378 29.97942915 33.76611328 36.39306641 C35.5606707 38.73018096 37.37492841 41.05184487 39.1875 43.375 C40.12537819 44.58303982 41.06305076 45.79123955 42 47 C41.59910156 47.6084375 41.19820313 48.216875 40.78515625 48.84375 C12.02059784 93.19726411 -0.60533554 144.48092651 -4.7668457 196.75439453 C-5.87078781 210.45503336 -7.41451635 224.09760892 -9 237.75 C-9.18875198 239.38838837 -9.18875198 239.38838837 -9.38131714 241.05987549 C-10.68593681 252.36459373 -12.05014729 263.65956322 -13.5703125 274.9375 C-13.68608643 275.80364929 -13.80186035 276.66979858 -13.92114258 277.56219482 C-14.97289629 285.22090455 -16.36424882 292.80770549 -17.8828125 300.38671875 C-19.1879679 306.94221241 -20.47317791 313.50143129 -21.75 320.0625 C-22.08427002 321.75004395 -22.08427002 321.75004395 -22.42529297 323.47167969 C-22.63041504 324.52387695 -22.83553711 325.57607422 -23.046875 326.66015625 C-23.23088867 327.59480713 -23.41490234 328.52945801 -23.60449219 329.49243164 C-24.1038664 332.23543119 -24.1038664 332.23543119 -24 336 C-37.49940141 340.53617299 -51.01716376 344.27297439 -65 347 C-66.24088379 347.24991699 -66.24088379 347.24991699 -67.50683594 347.50488281 C-95.01477193 352.79192344 -127.57478623 352.67365482 -155 347 C-156.46663086 346.70198486 -156.46663086 346.70198486 -157.96289062 346.39794922 C-202.06792372 337.16907474 -245.19225356 318.23112101 -278.06640625 286.79296875 C-279.88017915 284.94314837 -279.88017915 284.94314837 -282 284 C-280.44967706 280.30368353 -278.20225323 277.95363639 -275.38104057 275.13494492 C-274.90598825 274.65758491 -274.43093593 274.1802249 -273.94148809 273.68839943 C-272.34224483 272.08384606 -270.73594487 270.48654884 -269.12960815 268.88909912 C-267.97251058 267.73112968 -266.81585247 266.57272096 -265.65959752 265.41391015 C-262.47616302 262.22599426 -259.28651008 259.04436379 -256.09583163 255.86370039 C-252.65800406 252.43449359 -249.22594157 248.99952564 -245.79318237 245.56524658 C-239.84328165 239.61429614 -233.88972416 233.66702436 -227.93368149 227.72222137 C-219.32220358 219.12698369 -210.71624045 210.52624183 -202.11162199 201.92413786 C-188.15172776 187.96862306 -174.18737118 174.01758229 -160.22021484 160.06933594 C-146.65081759 146.51829108 -133.0835183 132.96515143 -119.51904297 119.40917969 C-118.68320965 118.57387182 -117.84737634 117.73856395 -116.98621474 116.87794372 C-112.79318169 112.6875207 -108.60018992 108.49705637 -104.40721869 104.30657148 C-69.61121286 69.53130585 -34.80796734 34.76329259 0 0 Z " fill="#DD7924" transform="translate(366,162)"/>
<path d="M0 0 C3.9251685 1.50157292 7.89112335 2.85220408 11.87890625 4.17675781 C29.04446017 9.92720098 45.64338961 16.74944251 62.00390625 24.51269531 C62.59796265 24.79328796 63.19201904 25.07388062 63.80407715 25.36297607 C87.27550696 36.46183899 109.13536965 49.53604978 131.00390625 63.51269531 C112.65353643 83.23636606 75.51088148 91.44489442 50.00390625 96.51269531 C49.03936523 96.70557129 48.07482422 96.89844727 47.08105469 97.09716797 C32.31730185 99.9508964 17.49263872 101.24481588 2.52197266 102.36889648 C-30.6794464 104.87229086 -64.08144951 108.44465616 -96.80859375 114.63769531 C-97.89156738 114.84217285 -98.97454102 115.04665039 -100.09033203 115.25732422 C-111.03380881 117.3966621 -121.81418242 120.13828835 -132.58520508 123.00927734 C-133.2491478 123.18255554 -133.91309052 123.35583374 -134.59715271 123.53436279 C-136.40561526 124.00639901 -138.21145238 124.4884613 -140.01708984 124.97119141 C-142.84414245 125.4850746 -144.34160188 125.498278 -146.99609375 124.51269531 C-138.46361197 104.3830936 -128.52445905 84.78189608 -114.99609375 67.51269531 C-114.50141602 66.8781543 -114.00673828 66.24361328 -113.49707031 65.58984375 C-94.8600863 41.83772444 -73.56775739 20.99500289 -47.81640625 4.98144531 C-45.07418434 3.27442274 -42.60823855 1.40600745 -40.11328125 -0.64355469 C-26.58521355 -10.93973796 -14.50795332 -5.56363413 0 0 Z " fill="#DD7924" transform="translate(167.99609375,41.4873046875)"/>
<path d="M0 0 C33.38010649 40.83976911 54.36802448 96.78649619 65.49438477 147.72705078 C65.95664226 149.98379291 65.95664226 149.98379291 66.67919922 152.05615234 C67.10259445 154.62165681 66.46582427 155.66384643 65.19140625 157.90625 C64.77818115 158.64407715 64.36495605 159.3819043 63.93920898 160.14208984 C63.48489502 160.9202002 63.03058105 161.69831055 62.5625 162.5 C62.10238525 163.30518066 61.64227051 164.11036133 61.16821289 164.93994141 C54.86909125 175.85027742 47.7178191 186.0428137 40 196 C38.98873047 197.30517578 38.98873047 197.30517578 37.95703125 198.63671875 C13.32627033 229.55225169 -20.61557545 257.85977724 -58 272 C-58.66 272 -59.32 272 -60 272 C-59.44424303 266.19741918 -58.57872533 260.5673426 -57.43969727 254.85253906 C-51.44651608 224.60901986 -48.0986005 193.87578013 -44.75 163.25 C-44.62521271 162.11252319 -44.50042542 160.97504639 -44.37185669 159.80310059 C-43.08211689 147.98103878 -41.91148765 136.16541394 -40.9921875 124.30859375 C-40.28177516 115.339604 -39.18319921 106.63617028 -37.375 97.8125 C-37.11702637 96.52424316 -36.85905273 95.23598633 -36.59326172 93.90869141 C-32.26566084 72.73321571 -26.47824522 51.90454137 -18 32 C-17.67531738 31.23768066 -17.35063477 30.47536133 -17.01611328 29.68994141 C-7.32748288 7.32748288 -7.32748288 7.32748288 0 0 Z " fill="#DD7924" transform="translate(415,220)"/>
<path d="M0 0 C1.0739502 0.21994629 2.14790039 0.43989258 3.25439453 0.66650391 C10.88085852 2.26738492 18.47667992 3.9652702 26 6 C27.66603271 6.44883545 27.66603271 6.44883545 29.36572266 6.90673828 C30.44772949 7.22755371 31.52973633 7.54836914 32.64453125 7.87890625 C33.62397705 8.16451416 34.60342285 8.45012207 35.61254883 8.74438477 C38 10 38 10 39.3137207 12.37744141 C43.91010424 29.94213437 37.74583485 49.06740031 29.05126953 64.26220703 C23.77679687 72.98113327 16.27461193 79.96609215 9 87 C6.31532091 85.70287454 3.79852389 84.29257037 1.296875 82.671875 C0.57628906 82.20894043 -0.14429688 81.74600586 -0.88671875 81.26904297 C-1.66660156 80.76775879 -2.44648438 80.26647461 -3.25 79.75 C-40.64131014 55.95751853 -79.53966633 37.72929145 -121.125 22.5 C-121.9823877 22.18587158 -122.83977539 21.87174316 -123.72314453 21.5480957 C-129.42474926 19.49121618 -135.1785399 17.68666342 -141 16 C-130.50044584 5.50044584 -104.46485419 2.69295366 -90 0 C-89.1843457 -0.16226074 -88.36869141 -0.32452148 -87.52832031 -0.49169922 C-59.98783259 -5.79299691 -27.46444383 -5.65024995 0 0 Z " fill="#DD7924" transform="translate(301,11)"/>
<path d="M0 0 C3.13239628 10.35134563 6.11807959 20.70335758 8.25 31.3125 C8.40049805 32.04952148 8.55099609 32.78654297 8.70605469 33.54589844 C9.18382347 36.02492793 9.60215573 38.50682796 10 41 C10.17877686 42.11866455 10.35755371 43.2373291 10.54174805 44.38989258 C12.19293061 55.94817051 12.35780197 67.40063502 12.3125 79.0625 C12.30926727 80.55808945 12.30926727 80.55808945 12.30596924 82.08389282 C12.25564707 96.58293001 11.90854684 110.74994974 9 125 C8.80132324 126.01400879 8.60264648 127.02801758 8.39794922 128.07275391 C5.23943729 143.86531353 0.66817576 158.93538314 -5 174 C-5.66 174 -6.32 174 -7 174 C-7.16491943 173.40912598 -7.32983887 172.81825195 -7.49975586 172.20947266 C-21.44799816 122.55963511 -41.29610096 72.23031101 -73 31 C-67.50385351 19.02254868 -52.08260962 10.21184167 -40.3828125 5.25 C-26.76876753 0.21940602 -14.451891 -0.54805888 0 0 Z " fill="#DD7924" transform="translate(496,180)"/>
<path d="M0 0 C7.0647176 2.1476163 13.40934492 5.00145429 19.9375 8.4375 C21.44159424 9.22713135 21.44159424 9.22713135 22.97607422 10.03271484 C41.02164851 19.67593502 57.56273801 31.62157791 72.44140625 45.65234375 C74.55554454 47.59218667 76.66709148 49.33677346 79 51 C77.35606624 55.21592931 74.23644614 58.03022614 71.08154297 61.14550781 C70.47652954 61.75081329 69.87151611 62.35611877 69.24816895 62.97976685 C67.25088001 64.9756645 65.24660442 66.96438799 63.2421875 68.953125 C61.85455498 70.33702668 60.4673639 71.72137112 59.08059692 73.10614014 C55.432074 76.7470322 51.77758448 80.38187778 48.12182617 84.01550293 C44.39140211 87.72545688 40.66664357 91.44108927 36.94140625 95.15625 C29.63314253 102.44307344 22.31856384 109.72352265 15 117 C11.01004022 115.51126423 8.78393896 114.07318135 5.875 110.9375 C0.92104653 105.82058753 -4.42935361 101.4256081 -10 97 C-11.25192718 95.99296411 -12.50319527 94.98510848 -13.75390625 93.9765625 C-21.74046977 87.53956788 -21.74046977 87.53956788 -29.9375 81.375 C-30.948125 80.59125 -31.95875 79.8075 -33 79 C-33 78.34 -33 77.68 -33 77 C-32.071875 76.2575 -31.14375 75.515 -30.1875 74.75 C-13.678932 60.94830246 -3.39251462 39.51840729 -1.25390625 18.36328125 C-0.71918408 12.24884945 -0.31552524 6.12946573 0 0 Z " fill="#DD7924" transform="translate(353,27)"/>
<path d="M0 0 C1.41706502 1.54888502 2.75809496 3.16761534 4.0625 4.8125 C7.61030507 9.26685687 7.61030507 9.26685687 11.2421875 13.65234375 C24.14022238 28.91425335 49 59.48501515 49 80 C47.97003906 80.02578125 46.94007813 80.0515625 45.87890625 80.078125 C18.1923822 81.06259308 -5.4161675 91.03079691 -25 111 C-29.26572325 109.45959994 -31.38833748 106.25349585 -34 102.75 C-34.98062352 101.47077488 -35.96377511 100.19348443 -36.94921875 98.91796875 C-37.45372559 98.26489746 -37.95823242 97.61182617 -38.47802734 96.93896484 C-47.00760521 86.07244136 -56.51100909 76.02239572 -66 66 C-64.35508462 61.79479193 -61.25415446 58.97303415 -58.11328125 55.85449219 C-57.51148041 55.24918671 -56.90967957 54.64388123 -56.28964233 54.02023315 C-54.3022587 52.02405788 -52.3076617 50.03527397 -50.3125 48.046875 C-48.92980135 46.66282932 -47.54739973 45.27848685 -46.1652832 43.89385986 C-43.27000678 40.99563595 -40.37114585 38.10105825 -37.46972656 35.20898438 C-33.74356991 31.49424327 -30.02649113 27.77056823 -26.31202698 24.04413986 C-23.46071422 21.18561661 -20.60467555 18.33185367 -17.74716187 15.47953033 C-16.37410476 14.10781086 -15.00254133 12.73459462 -13.63247681 11.35988617 C-11.72200904 9.44436421 -9.80529123 7.53532919 -7.88671875 5.62792969 C-7.03259903 4.76773727 -7.03259903 4.76773727 -6.16122437 3.89016724 C-2.22853085 0 -2.22853085 0 0 0 Z " fill="#DD7924" transform="translate(442,88)"/>
</svg>
