<?xml version="1.0" encoding="UTF-8"?>
<svg version="1.1" xmlns="http://www.w3.org/2000/svg" width="512" height="512">
<path d="M0 0 C1.7216519 1.58986421 3.42830871 3.19602478 5.125 4.8125 C5.69508789 5.35535645 6.26517578 5.89821289 6.85253906 6.45751953 C15.45155797 14.70029977 23.25435016 23.06804104 30.125 32.8125 C30.52493164 33.36808594 30.92486328 33.92367187 31.33691406 34.49609375 C62.19086675 77.5890253 74.10144664 131.69091998 66.15234375 183.95703125 C59.13881406 225.5863963 40.23442442 262.41663647 11.125 292.8125 C10.41754639 293.56080078 10.41754639 293.56080078 9.69580078 294.32421875 C2.11149267 302.31689292 -5.97251889 309.32171165 -14.875 315.8125 C-15.73834961 316.44236816 -15.73834961 316.44236816 -16.61914062 317.08496094 C-59.45514148 347.87784371 -113.21089696 359.52221872 -165.1640625 351.78515625 C-207.14232495 344.91197986 -244.19529956 326.19374855 -274.875 296.8125 C-275.37386719 296.34086426 -275.87273437 295.86922852 -276.38671875 295.38330078 C-313.75954883 259.91994371 -334.31232994 209.45862129 -336.15625 158.3359375 C-337.32682501 104.08303755 -318.39051866 52.24148406 -280.875 12.8125 C-280.36984863 12.28011719 -279.86469727 11.74773437 -279.34423828 11.19921875 C-271.10876795 2.57691245 -262.54038935 -5.19896628 -252.875 -12.1875 C-252.29169922 -12.6098291 -251.70839844 -13.0321582 -251.10742188 -13.46728516 C-176.10708199 -67.04189677 -72.35924283 -60.89961017 0 0 Z " fill="#ECECEC" transform="translate(389.875,104.1875)"/>
<path d="M0 0 C3.42645291 1.99748376 6.38231967 4.36509134 9.42578125 6.8984375 C14.67592727 11.18524804 19.98267074 15.35932274 25.42578125 19.3984375 C31.98259731 24.27288618 38.44218742 29.26086314 44.87744141 34.29443359 C50.59890287 38.75987386 56.38227853 43.13528219 62.22460938 47.44140625 C63.43303109 48.33777008 64.6324853 49.2463747 65.82177734 50.16796875 C67.62283811 51.56498966 67.62283811 51.56498966 69.65869141 52.84765625 C71.69881838 54.28881446 73.11793393 55.52194528 74.61328125 57.5234375 C75.40279918 65.587389 72.08806892 74.4481054 70.12109375 82.18359375 C69.77046878 83.582507 69.42037094 84.98155246 69.07077026 86.38072205 C68.34045134 89.29733414 67.60545019 92.21270976 66.86669922 95.12719727 C65.92594595 98.83922403 64.9945114 102.55350841 64.06628609 106.26868534 C63.34501737 109.15293954 62.62005538 112.03625507 61.89388657 114.9192791 C61.54943269 116.28763541 61.20579727 117.65619804 60.86304092 119.02498055 C60.3811343 120.94600886 59.89401454 122.86572707 59.40673828 124.78540039 C59.13217804 125.87220596 58.8576178 126.95901154 58.57473755 128.07875061 C57.40203998 132.28026861 56.02644995 136.39763894 54.61328125 140.5234375 C53.43945389 140.50487701 52.26562653 140.48631653 51.05622864 140.4671936 C39.94950078 140.30082484 28.84428537 140.2092058 17.73630238 140.18921852 C12.02626633 140.17658321 6.31887334 140.13837724 0.60961914 140.04003906 C-4.90913083 139.94595106 -10.42437602 139.9212468 -15.94384193 139.94297409 C-18.04055588 139.93935721 -20.13738398 139.91147998 -22.23341942 139.85802078 C-34.71114858 139.30075623 -34.71114858 139.30075623 -45.53115845 144.60614014 C-48.41062153 147.48953541 -50.89211848 150.58686709 -53.23899269 153.91353989 C-54.6687856 155.91908831 -56.27534721 157.71929247 -57.94921875 159.5234375 C-60.01858762 161.91550498 -62.06897879 164.32360726 -64.12109375 166.73046875 C-65.14693328 167.93246421 -66.17298133 169.13428173 -67.19921875 170.3359375 C-67.97531494 171.24533081 -67.97531494 171.24533081 -68.76708984 172.1730957 C-71.97186953 175.91433851 -75.23888927 179.58467586 -78.57421875 183.2109375 C-82.6083754 187.60597717 -86.39124295 192.15516035 -90.13671875 196.796875 C-93.74360528 201.16772014 -97.55610919 205.34870699 -101.38671875 209.5234375 C-96.09881452 222.47381428 -90.63847459 235.33464774 -84.88671875 248.0859375 C-80.74299629 257.27721142 -76.6141894 266.47346828 -72.57421875 275.7109375 C-72.14753906 276.679104 -71.72085938 277.64727051 -71.28125 278.64477539 C-70.89710938 279.52641357 -70.51296875 280.40805176 -70.1171875 281.31640625 C-69.78098389 282.0849292 -69.44478027 282.85345215 -69.09838867 283.64526367 C-68.38671875 285.5234375 -68.38671875 285.5234375 -68.38671875 287.5234375 C-70.07861328 288.02943481 -70.07861328 288.02943481 -71.8046875 288.5456543 C-76.06930475 289.82136486 -80.33353285 291.09837222 -84.59765625 292.37573242 C-86.42828277 292.92392687 -88.25900873 293.47178939 -90.08984375 294.01928711 C-91.86841515 294.55120087 -93.64681753 295.08368009 -95.42504883 295.61672974 C-97.18996171 296.14532122 -98.95542512 296.67207804 -100.72143555 297.19699097 C-104.86924763 298.43607672 -108.99476773 299.71117008 -113.09375 301.10400391 C-114.18586792 301.46870537 -114.18586792 301.46870537 -115.30004883 301.84077454 C-117.24988072 302.4969208 -119.19356783 303.17124876 -121.13671875 303.84692383 C-124.79801202 304.60905151 -126.1736957 304.33393659 -129.38671875 302.5234375 C-131.4402636 300.921842 -133.38184084 299.31090288 -135.32421875 297.5859375 C-139.91740204 293.59920206 -144.57823203 289.74771681 -149.38671875 286.0234375 C-153.97817949 282.45695267 -158.47083508 278.80512154 -162.88671875 275.0234375 C-167.36946228 271.1868552 -171.92911504 267.47419279 -176.57421875 263.8359375 C-177.15502197 263.37300293 -177.7358252 262.91006836 -178.33422852 262.43310547 C-181.00855206 260.31348729 -183.64822775 258.35592863 -186.52734375 256.51171875 C-189.29491222 254.66796154 -191.2943402 253.10377182 -193.38671875 250.5234375 C-194.82576427 239.19163387 -190.09302309 225.86097187 -187.67431641 214.84912109 C-187.10940433 212.2630686 -186.55626006 209.67469636 -186.00390625 207.0859375 C-185.82689178 206.29944824 -185.64987732 205.51295898 -185.46749878 204.70263672 C-183.90357671 197.34715743 -185.6765258 192.4498535 -188.07421875 185.5234375 C-190.27771296 179.04980968 -192.2601517 172.55345909 -194.07421875 165.9609375 C-197.11549739 154.97801606 -200.7569564 144.20626359 -204.4284668 133.42163086 C-211.52759681 112.50782523 -211.52759681 112.50782523 -213.38671875 102.5234375 C-212.06671875 102.8534375 -210.74671875 103.1834375 -209.38671875 103.5234375 C-200.45201713 91.20668598 -191.61920477 78.82318907 -182.875 66.37060547 C-177.37744944 58.54295555 -171.85341666 50.73903267 -166.19921875 43.0234375 C-165.7292749 42.38196777 -165.25933105 41.74049805 -164.77514648 41.07958984 C-161.51902643 36.65574518 -161.51902643 36.65574518 -160.38671875 35.5234375 C-151.79647741 35.69347889 -143.28062861 37.2439433 -134.8359375 38.703125 C-133.57892532 38.91655548 -132.32191315 39.12998596 -131.02680969 39.34988403 C-128.38340063 39.79973048 -125.74039623 40.25141607 -123.09790039 40.70654297 C-119.75726131 41.28183695 -116.41558586 41.85080969 -113.07349968 42.41762924 C-86.94648348 46.85114713 -86.94648348 46.85114713 -74.38671875 49.5234375 C-74.27779297 48.74202393 -74.16886719 47.96061035 -74.05664062 47.15551758 C-73.21509225 43.84912801 -71.73479307 43.04782857 -68.88305664 41.34326172 C-68.22426514 40.96959473 -67.56547363 40.59592773 -66.88671875 40.2109375 C-65.41534852 39.33423973 -63.94538988 38.4551702 -62.4765625 37.57421875 C-61.66429199 37.09162598 -60.85202148 36.6090332 -60.01513672 36.11181641 C-55.09719768 33.13985733 -50.28073201 30.00816965 -45.44921875 26.8984375 C-43.31007074 25.52707089 -41.17074475 24.15598185 -39.03125 22.78515625 C-36.81637953 21.364625 -34.60153634 19.9440512 -32.38671875 18.5234375 C-28.91377678 16.29634028 -25.44051093 14.06975004 -21.96655273 11.84423828 C-19.79244751 10.45136993 -17.61876299 9.05784462 -15.44555664 7.66357422 C-14.46192139 7.03338379 -13.47828613 6.40319336 -12.46484375 5.75390625 C-11.6027832 5.20114014 -10.74072266 4.64837402 -9.85253906 4.07885742 C-8.63195801 3.30892456 -8.63195801 3.30892456 -7.38671875 2.5234375 C-6.5062085 1.95197998 -5.62569824 1.38052246 -4.71850586 0.79174805 C-2.38671875 -0.4765625 -2.38671875 -0.4765625 0 0 Z " fill="#ECECEC" transform="translate(302.38671875,135.4765625)"/>
<path d="M0 0 C6.3817235 0.84863344 11.34001198 4.53081977 16.63818359 7.94189453 C17.86817797 8.72350386 19.10945368 9.4876673 20.36181641 10.23291016 C28.29804076 14.96020336 33.10760512 19.07261271 35.63232422 28.26577759 C36.1081643 30.17231691 36.55451353 32.08614061 37 34 C37.61848976 36.05724835 38.25344638 38.10963138 38.90625 40.15625 C39.22722656 41.21070313 39.54820313 42.26515625 39.87890625 43.3515625 C41.25711488 47.8367432 42.67331053 52.30929448 44.09375 56.78125 C44.36960938 57.64999756 44.64546875 58.51874512 44.9296875 59.41381836 C45.78602284 62.10935088 46.6429131 64.80470636 47.5 67.5 C51.04651363 78.65277294 54.58605138 89.80578266 58 101 C58.56226087 102.83340668 59.12472237 104.66675187 59.6875 106.5 C61.18465788 111.38458212 62.35867718 115.49747505 61.30322266 120.58740234 C61.12618805 121.46536469 60.94915344 122.34332703 60.76675415 123.24789429 C60.56786591 124.18444855 60.36897766 125.12100281 60.1640625 126.0859375 C59.86585098 127.54865585 59.86585098 127.54865585 59.56161499 129.04092407 C58.92513643 132.15422574 58.2755634 135.26461402 57.625 138.375 C56.9842109 141.47873188 56.34614616 144.58300518 55.70980835 147.68765259 C55.31342197 149.6171599 54.91401348 151.5460496 54.51113892 153.47421265 C53.50951221 158.30518398 52.63230644 163.1065344 52 168 C52.58322021 168.2693335 53.16644043 168.53866699 53.76733398 168.81616211 C56.0126179 170.00669045 57.77489133 171.31494298 59.72265625 172.94140625 C60.42011963 173.52027588 61.11758301 174.09914551 61.83618164 174.69555664 C62.5708667 175.31164795 63.30555176 175.92773926 64.0625 176.5625 C65.60407214 177.84386374 67.14573866 179.12511393 68.6875 180.40625 C69.43257813 181.02757812 70.17765625 181.64890625 70.9453125 182.2890625 C73.47317505 184.39401268 76.0151792 186.48115252 78.5625 188.5625 C79.40941406 189.25472656 80.25632812 189.94695312 81.12890625 190.66015625 C85.44162413 194.17487463 89.76008525 197.68251724 94.08032227 201.18798828 C97.12280146 203.65757318 100.16307033 206.12942008 103.1875 208.62109375 C104.99157101 210.10694668 106.80466543 211.58194973 108.62890625 213.04296875 C111 215 111 215 113.02734375 216.98828125 C115.00071435 218.80830199 116.5356523 219.93811778 119 221 C121.35661082 220.86023635 121.35661082 220.86023635 123.91015625 220.05859375 C124.97049072 219.7642041 126.0308252 219.46981445 127.12329102 219.16650391 C128.41663049 218.78135446 129.70876372 218.3921428 131 218 C131.76899628 217.76682068 132.53799255 217.53364136 133.33029175 217.293396 C140.70665928 215.04134174 148.06095054 212.71914147 155.41308594 210.3894043 C158.22180206 209.50083124 161.03261894 208.61917902 163.84375 207.73828125 C164.70415894 207.46333328 165.56456787 207.18838531 166.4510498 206.90510559 C167.25288696 206.65451889 168.05472412 206.40393219 168.88085938 206.14575195 C169.58190796 205.92385696 170.28295654 205.70196198 171.00524902 205.4733429 C173 205 173 205 177 205 C176.71092773 204.36239746 176.42185547 203.72479492 176.12402344 203.06787109 C168.35439595 185.89969422 160.7655608 168.65581221 153.25 151.375 C152.79894897 150.33897644 152.34789795 149.30295288 151.88317871 148.23553467 C150.59242134 145.26968272 149.30362761 142.30298666 148.015625 139.3359375 C147.42896057 137.98773926 147.42896057 137.98773926 146.83044434 136.61230469 C146.47164185 135.78424316 146.11283936 134.95618164 145.74316406 134.10302734 C145.42929749 133.37997406 145.11543091 132.65692078 144.79205322 131.91195679 C144.12501259 130.30177097 143.55114804 128.65344411 143 127 C143.61746094 126.33355469 144.23492187 125.66710937 144.87109375 124.98046875 C149.17815516 120.2931797 153.38837878 115.59181799 157.375 110.625 C161.24283546 105.82779065 165.35109495 101.32795793 169.56030273 96.83422852 C172.65750846 93.50880245 175.59607067 90.11298325 178.4375 86.5625 C183.00937282 80.86639616 187.96623202 75.57966266 192.9609375 70.2578125 C195.99380819 67.02262554 198.93393472 63.71530845 201.828125 60.35546875 C202.52660362 59.54756181 203.24482254 58.75517746 204 58 C206.89143151 57.90476095 209.75892064 57.87446973 212.65063477 57.88647461 C214.0114769 57.88625557 214.0114769 57.88625557 215.39981079 57.8860321 C218.41369985 57.88673159 221.42752793 57.89452566 224.44140625 57.90234375 C226.52505967 57.9042078 228.60871354 57.90563176 230.69236755 57.90663147 C236.18823446 57.91045766 241.68407513 57.9202888 247.17993164 57.93133545 C252.78336227 57.9415474 258.38679713 57.94612863 263.99023438 57.95117188 C274.99350114 57.96191098 285.99674839 57.97898861 297 58 C300.3516273 66.03966665 303.20533437 74.22450683 305.984375 82.4765625 C306.21239052 83.152458 306.44040604 83.8283535 306.67533112 84.52473068 C307.87836513 88.09246675 309.07761634 91.66144913 310.27392578 95.23144531 C311.50330991 98.89735841 312.74665948 102.55837748 313.9930687 106.21853065 C314.9567937 109.05729047 315.90976627 111.89957721 316.85993195 114.74290085 C317.31357343 116.0941392 317.77123725 117.44403461 318.23314667 118.79246902 C322.78843679 132.11242301 322.78843679 132.11242301 322 139 C320.49609375 141.25 320.49609375 141.25 318.4375 143 C317.69886719 143.66644531 316.96023438 144.33289063 316.19921875 145.01953125 C315.47347656 145.67308594 314.74773437 146.32664062 314 147 C312.89439577 148.20917372 311.81044416 149.43853243 310.75 150.6875 C307.58230236 154.37103831 304.30465981 157.93992472 301 161.5 C297.78823993 164.96270951 294.5889648 168.4264917 291.5 172 C287.90764533 176.15586129 284.16380974 180.16707959 280.42871094 184.1940918 C276.53938513 188.39518102 272.7372645 192.66288273 269 197 C273.23816537 202.06623768 277.67408963 206.80038069 282.375 211.4375 C283.01566406 212.07365234 283.65632813 212.70980469 284.31640625 213.36523438 C285.87530879 214.91250332 287.43651416 216.45736492 289 218 C285.46955865 221.93993047 281.00407584 223.36057148 276.1875 225.3125 C274.72328613 225.90635498 274.72328613 225.90635498 273.22949219 226.51220703 C222.76660883 246.43687547 165.8469135 244.28251206 116.19140625 222.97265625 C94.38334674 213.24568993 75.19226981 199.46464422 58 183 C57.50113281 182.52836426 57.00226563 182.05672852 56.48828125 181.57080078 C19.11545117 146.10744371 -1.43732994 95.64612129 -3.28125 44.5234375 C-3.59794527 29.50624207 -2.17202142 14.84599745 0 0 Z " fill="#ECECEC" transform="translate(57,218)"/>
<path d="M0 0 C-4.95 2.64 -9.9 5.28 -15 8 C-6.36800837 10.13585198 2.38801484 11.24954352 11.1875 12.4375 C12.80457559 12.65888997 14.42160007 12.88065354 16.03857422 13.1027832 C22.99134598 14.05612113 29.94602285 14.99478504 36.90234375 15.921875 C38.38214722 16.12018921 38.38214722 16.12018921 39.8918457 16.32250977 C41.63604131 16.55543272 43.38063671 16.78539416 45.12573242 17.01147461 C50.80464304 17.76697201 56.39458751 18.81925411 62 20 C64.51050553 29.79373037 66.74894609 39.64221718 68.94775391 49.50927734 C70.6672843 57.21615618 72.43547007 64.89723611 74.46679688 72.52929688 C75 75 75 75 75 79 C73.10180664 80.66894531 73.10180664 80.66894531 70.41015625 82.328125 C69.41064941 82.95493164 68.41114258 83.58173828 67.38134766 84.22753906 C66.28612793 84.89495117 65.1909082 85.56236328 64.0625 86.25 C62.92663631 86.95650632 61.79172021 87.66453818 60.65771484 88.37402344 C58.29348325 89.85160601 55.92526058 91.32246717 53.55419922 92.7890625 C48.03622521 96.21073586 42.58441584 99.73597146 37.125 103.25 C31.19537153 107.06326589 25.25986401 110.85804202 19.2421875 114.53125 C18.3538623 115.07749023 17.46553711 115.62373047 16.55029297 116.18652344 C14.89680884 117.2002045 13.23727525 118.20410868 11.57080078 119.19628906 C10.48387939 119.8648291 10.48387939 119.8648291 9.375 120.546875 C8.74335938 120.92682617 8.11171875 121.30677734 7.4609375 121.69824219 C5.61797798 123.34039796 5.50424359 124.63278118 5 127 C-6.95451727 125.39231497 -18.85768333 123.56098121 -30.74609375 121.51953125 C-32.66115219 121.19068436 -32.66115219 121.19068436 -34.61489868 120.85519409 C-39.9084447 119.94341974 -45.20125461 119.0274806 -50.4934082 118.10766602 C-54.41008354 117.4272766 -58.32809497 116.75475808 -62.24609375 116.08203125 C-63.43980087 115.87270462 -64.633508 115.66337799 -65.86338806 115.44770813 C-67.53287254 115.16192146 -67.53287254 115.16192146 -69.23608398 114.87036133 C-70.20754868 114.70176102 -71.17901337 114.53316071 -72.17991638 114.35945129 C-77.67757328 113.43493291 -77.67757328 113.43493291 -82.6081543 115.21484375 C-83.00945557 115.78332031 -83.41075684 116.35179687 -83.82421875 116.9375 C-84.28948975 117.57671387 -84.75476074 118.21592773 -85.23413086 118.87451172 C-85.71374268 119.57592285 -86.19335449 120.27733398 -86.6875 121 C-87.46395874 122.08498779 -87.46395874 122.08498779 -88.25610352 123.19189453 C-89.86008489 125.44631027 -91.43343178 127.71946485 -93 130 C-93.69899414 131.00885254 -93.69899414 131.00885254 -94.41210938 132.03808594 C-96.21304646 134.63814013 -98.00724466 137.24246857 -99.78613281 139.85766602 C-103.77068922 145.71308952 -107.90334741 151.45360889 -112.06933594 157.1809082 C-114.88689025 161.0590452 -117.6780387 164.95207102 -120.421875 168.8828125 C-121.24473999 170.06049194 -121.24473999 170.06049194 -122.08422852 171.26196289 C-123.13268341 172.76639269 -124.17759579 174.27329912 -125.21850586 175.78295898 C-128.78057453 180.89028727 -128.78057453 180.89028727 -131 182 C-133.46048166 180.58760069 -135.77802759 179.12362167 -138.125 177.5390625 C-138.8277002 177.07390228 -139.53040039 176.60874207 -140.25439453 176.12948608 C-142.50801603 174.63548592 -144.7541003 173.13057751 -147 171.625 C-149.24741952 170.12895942 -151.49629827 168.63513782 -153.74560547 167.14193726 C-155.14711757 166.2103744 -156.547224 165.27669271 -157.94580078 164.34072876 C-161.38379934 162.02060961 -161.38379934 162.02060961 -165 160 C-161.68932452 122.52917293 -139.44625679 85.74413388 -114 59 C-113.49484863 58.46761719 -112.98969727 57.93523437 -112.46923828 57.38671875 C-104.23376795 48.76441245 -95.66538935 40.98853372 -86 34 C-85.41669922 33.5776709 -84.83339844 33.1553418 -84.23242188 32.72021484 C-64.60972737 18.70323521 -25.08919424 -6.27229856 0 0 Z " fill="#ECECEC" transform="translate(223,58)"/>
<path d="M0 0 C3.42645291 1.99748376 6.38231967 4.36509134 9.42578125 6.8984375 C14.67592727 11.18524804 19.98267074 15.35932274 25.42578125 19.3984375 C31.98259731 24.27288618 38.44218742 29.26086314 44.87744141 34.29443359 C50.59890287 38.75987386 56.38227853 43.13528219 62.22460938 47.44140625 C63.43303109 48.33777008 64.6324853 49.2463747 65.82177734 50.16796875 C67.62283811 51.56498966 67.62283811 51.56498966 69.65869141 52.84765625 C71.69881838 54.28881446 73.11793393 55.52194528 74.61328125 57.5234375 C75.40279918 65.587389 72.08806892 74.4481054 70.12109375 82.18359375 C69.77046878 83.582507 69.42037094 84.98155246 69.07077026 86.38072205 C68.34045134 89.29733414 67.60545019 92.21270976 66.86669922 95.12719727 C65.92594595 98.83922403 64.9945114 102.55350841 64.06628609 106.26868534 C63.34501737 109.15293954 62.62005538 112.03625507 61.89388657 114.9192791 C61.54943269 116.28763541 61.20579727 117.65619804 60.86304092 119.02498055 C60.3811343 120.94600886 59.89401454 122.86572707 59.40673828 124.78540039 C59.13217804 125.87220596 58.8576178 126.95901154 58.57473755 128.07875061 C57.40439933 132.27181557 55.98992519 136.39350569 54.61328125 140.5234375 C21.61328125 140.5234375 -11.38671875 140.5234375 -45.38671875 140.5234375 C-54.6564883 112.71412885 -54.6564883 112.71412885 -58.5078125 100.42578125 C-58.94235817 99.04194725 -59.3769344 97.65812284 -59.8115387 96.27430725 C-60.702708 93.43459302 -61.59204297 90.5943121 -62.48022461 87.75366211 C-63.61354539 84.13028342 -64.75403734 80.50920155 -65.89605618 76.88855648 C-66.78764922 74.05776171 -67.67435291 71.22545287 -68.55970955 68.3927021 C-68.97854137 67.05541121 -69.39912721 65.71866822 -69.82159233 64.38252068 C-70.40761668 62.5273854 -70.98606034 60.66986066 -71.56420898 58.81225586 C-71.89315659 57.76323593 -72.22210419 56.714216 -72.5610199 55.63340759 C-73.45216406 52.27693969 -73.95878202 48.96710794 -74.38671875 45.5234375 C-63.29716338 38.27971808 -52.17494722 31.09110277 -40.99194336 23.99243164 C-35.85933332 20.73404101 -30.7319492 17.46775245 -25.61328125 14.1875 C-25.04608871 13.82406998 -24.47889618 13.46063995 -23.89451599 13.0861969 C-21.12801576 11.31325553 -18.36214409 9.53934143 -15.59692383 7.7644043 C-14.59814209 7.12414307 -13.59936035 6.48388184 -12.5703125 5.82421875 C-11.68915771 5.25872314 -10.80800293 4.69322754 -9.90014648 4.1105957 C-9.07071533 3.5868335 -8.24128418 3.06307129 -7.38671875 2.5234375 C-6.5040332 1.95052979 -5.62134766 1.37762207 -4.71191406 0.78735352 C-2.38671875 -0.4765625 -2.38671875 -0.4765625 0 0 Z " fill="#344D5B" transform="translate(302.38671875,135.4765625)"/>
<path d="M0 0 C6.15511111 1.18128395 12.27253556 2.49113506 18.3828125 3.8828125 C19.53805923 4.14547913 19.53805923 4.14547913 20.71664429 4.41345215 C24.92379905 5.37555695 29.12379295 6.36224026 33.31787109 7.37988281 C41.59884002 9.37632411 49.77604633 11.1948349 58.21875 12.3515625 C77.64560862 15.23998342 77.64560862 15.23998342 83.41064453 21.70214844 C87.75766282 28.65100845 90.22993507 36.15855137 92.65478516 43.93212891 C94.62690267 50.11518934 97.35509126 55.9765718 100.01470947 61.88726807 C101.40832221 65.00601418 102.75023132 68.14617842 104.09765625 71.28515625 C105.83823667 75.32165321 107.59002702 79.35229633 109.37109375 83.37109375 C109.70705566 84.12994873 110.04301758 84.88880371 110.38916016 85.6706543 C111.23177042 87.56819836 112.07855561 89.46388713 112.92578125 91.359375 C114 94 114 94 114 96 C112.87207031 96.33733154 111.74414062 96.67466309 110.58203125 97.0222168 C106.317414 98.29792736 102.0531859 99.57493472 97.7890625 100.85229492 C95.95843598 101.40048937 94.12771002 101.94835189 92.296875 102.49584961 C90.5183036 103.02776337 88.73990122 103.56024259 86.96166992 104.09329224 C85.19675704 104.62188372 83.43129363 105.14864054 81.6652832 105.67355347 C77.51747112 106.91263922 73.39195102 108.18773258 69.29296875 109.58056641 C68.56489014 109.82370071 67.83681152 110.06683502 67.08666992 110.31733704 C65.13683803 110.9734833 63.19315092 111.64781126 61.25 112.32348633 C57.58870673 113.08561401 56.21302305 112.81049909 53 111 C50.94645515 109.3984045 49.00487791 107.78746538 47.0625 106.0625 C42.46931671 102.07576456 37.80848672 98.22427931 33 94.5 C28.40853926 90.93351517 23.91588367 87.28168404 19.5 83.5 C15.01725647 79.6634177 10.45760371 75.95075529 5.8125 72.3125 C5.23169678 71.84956543 4.65089355 71.38663086 4.05249023 70.90966797 C1.37816669 68.79004979 -1.261509 66.83249113 -4.140625 64.98828125 C-6.90851325 63.144311 -8.90812116 61.58128605 -11 59 C-12.19848247 49.34925688 -8.61134245 38.15998616 -6.61645508 28.74121094 C-6.05941199 26.11041597 -5.51408812 23.47739663 -4.97070312 20.84375 C-4.6178582 19.14829778 -4.26436561 17.45298019 -3.91015625 15.7578125 C-3.74862564 14.98164581 -3.58709503 14.20547913 -3.42066956 13.40579224 C-2.45808087 8.87290438 -1.32451562 4.44100138 0 0 Z " fill="#344D5B" transform="translate(120,327)"/>
<path d="M0 0 C0.99 0 1.98 0 3 0 C3.71872426 6.67044288 4.4299936 13.34165129 5.13623047 20.01342773 C5.37705081 22.28020976 5.61954 24.54681517 5.86376953 26.81323242 C6.21572001 30.08206228 6.56154642 33.35149271 6.90625 36.62109375 C7.0156189 37.62458359 7.12498779 38.62807343 7.2376709 39.66197205 C9.02526866 56.8107714 9.02526866 56.8107714 5.578125 61.21875 C5.05347656 61.91419922 4.52882813 62.60964844 3.98828125 63.32617188 C3.41464844 64.04353516 2.84101563 64.76089844 2.25 65.5 C1.04570755 67.08244555 -0.15739089 68.66580039 -1.359375 70.25 C-1.97103516 71.04277344 -2.58269531 71.83554688 -3.21289062 72.65234375 C-5.91134031 76.1971924 -8.45431295 79.84474216 -11 83.5 C-15.64952782 90.11935422 -20.36843757 96.68602151 -25.12036133 103.23217773 C-27.91804331 107.09286911 -30.68875035 110.96944316 -33.41796875 114.87890625 C-33.96710938 115.66458984 -34.51625 116.45027344 -35.08203125 117.25976562 C-36.13142662 118.7649203 -37.17716214 120.27263502 -38.21875 121.78320312 C-41.78040307 126.89020153 -41.78040307 126.89020153 -44 128 C-46.46048166 126.58760069 -48.77802759 125.12362167 -51.125 123.5390625 C-51.8277002 123.07390228 -52.53040039 122.60874207 -53.25439453 122.12948608 C-55.50801603 120.63548592 -57.7541003 119.13057751 -60 117.625 C-62.24741952 116.12895942 -64.49629827 114.63513782 -66.74560547 113.14193726 C-68.14711757 112.2103744 -69.547224 111.27669271 -70.94580078 110.34072876 C-74.38379934 108.02060961 -74.38379934 108.02060961 -78 106 C-75.6525777 79.43144764 -62.99442165 52.33684478 -47.8359375 30.64453125 C-46.02056741 28.1138001 -46.02056741 28.1138001 -44.7265625 25.76171875 C-40.57023884 18.94481849 -33.54481739 16.35081755 -26.55859375 13.17285156 C-22.58679322 11.35219033 -18.65077229 9.4576929 -14.71069336 7.56958008 C-12.62783284 6.57248834 -10.54273298 5.58005974 -8.45532227 4.5925293 C-7.02530884 3.91444214 -7.02530884 3.91444214 -5.56640625 3.22265625 C-4.70990479 2.81797119 -3.85340332 2.41328613 -2.97094727 1.99633789 C-1.04991755 1.15393438 -1.04991755 1.15393438 0 0 Z " fill="#354E5C" transform="translate(136,112)"/>
<path d="M0 0 C-0.42696831 13.09614854 -1.25217662 22.68430878 -10 33 C-11.19435098 34.61089322 -12.38855623 36.22191082 -13.57568359 37.83813477 C-18.90431628 44.99802476 -24.83308526 51.56054946 -31 58 C-31.47163574 58.49886719 -31.94327148 58.99773437 -32.42919922 59.51171875 C-47.82222932 75.73356422 -65.82510403 88.43252356 -86 98 C-92.93 91.07 -99.86 84.14 -107 77 C-100.2983871 68.06451613 -100.2983871 68.06451613 -96.5625 64.5 C-93.2042027 61.21980264 -90.06686799 57.857655 -87.01171875 54.296875 C-84.39720079 51.31175546 -81.69966029 48.4080275 -79 45.5 C-75.23800083 41.44410364 -71.53384852 37.3552468 -67.91796875 33.16796875 C-64.76467482 29.60365484 -61.51222233 26.12996129 -58.26171875 22.65429688 C-57.76929688 22.12513672 -57.276875 21.59597656 -56.76953125 21.05078125 C-56.28371582 20.53531738 -55.79790039 20.01985352 -55.29736328 19.48876953 C-53.82843111 17.88575968 -53.82843111 17.88575968 -52.35546875 15.32421875 C-48.50046149 11.52035586 -43.65346924 10.79903881 -38.5 9.5 C-36.84085571 9.05889893 -36.84085571 9.05889893 -35.14819336 8.60888672 C-31.77065875 7.71742118 -28.38721385 6.85388604 -25 6 C-23.46690186 5.61183105 -23.46690186 5.61183105 -21.90283203 5.21582031 C-18.27801948 4.3013117 -14.65311545 3.38885858 -11.01953125 2.50976562 C-0.66783359 0 -0.66783359 0 0 0 Z " fill="#364F5D" transform="translate(432,339)"/>
<path d="M0 0 C0 1.32 0 2.64 0 4 C-43.98896047 8.13841096 -43.98896047 8.13841096 -61.38671875 6.1328125 C-62.55240387 6.0006559 -62.55240387 6.0006559 -63.74163818 5.86582947 C-72.09683072 4.90119791 -80.4234177 3.74551968 -88.75 2.5625 C-91.88920132 2.11892743 -95.02856654 1.67652331 -98.16796875 1.234375 C-98.92931625 1.12688431 -99.69066376 1.01939362 -100.4750824 0.90864563 C-105.01770856 0.26978162 -109.5628987 -0.34016304 -114.11328125 -0.921875 C-115.13647461 -1.05408447 -116.15966797 -1.18629395 -117.21386719 -1.32250977 C-119.05615811 -1.55855921 -120.89923002 -1.78862393 -122.74316406 -2.01147461 C-126.48580017 -2.49574904 -128.81108322 -2.87405548 -132 -5 C-129.3685272 -6.72736343 -126.69280401 -8.37014494 -124 -10 C-123.29875 -10.45375 -122.5975 -10.9075 -121.875 -11.375 C-89.26265273 -30.39886924 -32.14563307 -13.15637805 0 0 Z " fill="#3A525F" transform="translate(339,71)"/>
<path d="M0 0 C25.30681021 24.20074333 41.87415296 69.29614741 43.09765625 103.75 C43.08605469 104.4925 43.07445312 105.235 43.0625 106 C43.05347656 106.763125 43.04445313 107.52625 43.03515625 108.3125 C43.02355469 108.869375 43.01195312 109.42625 43 110 C38.84543455 105.36530788 36.29474437 100.06772969 33.5 94.5625 C29.23941116 86.28042006 24.90471094 78.04765211 20.4375 69.875 C19.68726563 68.4993689 19.68726563 68.4993689 18.921875 67.09594727 C16.28485278 62.2584929 16.28485278 62.2584929 13.43115234 57.5480957 C11.94605799 54.90395893 11.25515388 52.69141958 10.60546875 49.73828125 C10.3748877 48.71355713 10.14430664 47.68883301 9.90673828 46.63305664 C9.66938965 45.53727295 9.43204102 44.44148926 9.1875 43.3125 C8.66835507 40.98428883 8.1488115 38.65616651 7.62890625 36.328125 C7.36352051 35.12736328 7.09813477 33.92660156 6.82470703 32.68945312 C5.9978911 28.99056549 5.14300861 25.29935106 4.27734375 21.609375 C4.00059814 20.42819092 3.72385254 19.24700684 3.4387207 18.0300293 C2.90364138 15.74988179 2.36706328 13.47008538 1.82885742 11.19067383 C1.46884644 9.64416138 1.46884644 9.64416138 1.1015625 8.06640625 C0.88838379 7.15834229 0.67520508 6.25027832 0.45556641 5.31469727 C0 3 0 3 0 0 Z " fill="#3C5461" transform="translate(414,131)"/>
<path d="M0 0 C2 3 2 3 2 5 C3.32 5.33 4.64 5.66 6 6 C4.71416016 7.37671875 4.71416016 7.37671875 3.40234375 8.78125 C-3.45788616 16.13845251 -10.20740131 23.55174783 -16.734375 31.20703125 C-17.76021453 32.40902671 -18.78626258 33.61084423 -19.8125 34.8125 C-20.32989746 35.41876221 -20.84729492 36.02502441 -21.38037109 36.6496582 C-24.58515078 40.39090101 -27.85217052 44.06123836 -31.1875 47.6875 C-34.41555254 51.20386345 -37.50085734 54.78652564 -40.5 58.5 C-41.99812213 60.33486817 -43.49818955 62.16814944 -45 64 C-45.41813965 64.51755859 -45.8362793 65.03511719 -46.26708984 65.56835938 C-47.55387579 67.14691935 -48.86674931 68.69981377 -50.1875 70.25 C-50.96480469 71.18328125 -51.74210938 72.1165625 -52.54296875 73.078125 C-55 75 -55 75 -58.30078125 74.796875 C-59.19152344 74.53390625 -60.08226562 74.2709375 -61 74 C-61 69.65046527 -58.30397586 67.7776592 -55.4375 64.8125 C-54.32093199 63.63085296 -53.20504225 62.44856463 -52.08984375 61.265625 C-51.55085449 60.69779297 -51.01186523 60.12996094 -50.45654297 59.54492188 C-46.57418979 55.42699849 -42.93251561 51.09464013 -39.26171875 46.7890625 C-33.67681067 40.24344569 -28.03446039 33.77960493 -22.22265625 27.43359375 C-19.09058093 24.00427402 -16.03794747 20.51262677 -13 17 C-11.97916667 15.83333333 -10.95833333 14.66666667 -9.9375 13.5 C-8.83303584 12.22942521 -7.72887119 10.95859 -6.625 9.6875 C-6.0882666 9.07608154 -5.5515332 8.46466309 -4.99853516 7.8347168 C-2.76000037 5.24535614 -1.09336591 3.28009772 0 0 Z " fill="#B3B4B7" transform="translate(255,271)"/>
<path d="M0 0 C0.33 0 0.66 0 1 0 C1.15855469 0.68121414 1.31710938 1.36242828 1.48046875 2.06428528 C3.58874878 10.82768865 6.24248599 19.37563698 9 27.94921875 C9.48208451 29.45740404 9.96384909 30.96569163 10.4453125 32.47407532 C11.70333455 36.41218759 12.96594513 40.3488138 14.22949219 44.28515625 C15.25645674 47.48709897 16.28017112 50.69007621 17.30371094 53.89311504 C22.72404594 73.33873325 22.72404594 73.33873325 30 92 C28.35 91.67 26.7 91.34 25 91 C24.67 91.99 24.34 92.98 24 94 C22 93 22 93 20.703125 89.703125 C20.20977469 88.22170887 19.72617776 86.73702489 19.25 85.25 C18.98469482 84.43926025 18.71938965 83.62852051 18.44604492 82.79321289 C16.59024491 77.04567009 14.92479766 71.2571213 13.3125 65.4375 C10.26912434 54.45502083 6.62982173 43.6830005 2.95825195 32.89819336 C-4.14087806 11.98438773 -4.14087806 11.98438773 -6 2 C-4.68 2.33 -3.36 2.66 -2 3 C-1.34 2.01 -0.68 1.02 0 0 Z " fill="#B3B4B8" transform="translate(95,236)"/>
<path d="M0 0 C-0.66 0.99 -1.32 1.98 -2 3 C-1.01 4.485 -1.01 4.485 0 6 C-7.66136005 6.86228394 -15.31196753 7.32516643 -23.01171875 7.68359375 C-25.55696714 7.80686419 -28.1022145 7.93015599 -30.64746094 8.0534668 C-32.65011034 8.14903762 -34.65275975 8.24460813 -36.65541077 8.34014511 C-58.11657638 9.36832309 -79.56830262 10.46087475 -101 12 C-98 10 -98 10 -94 10 C-94.66 8.35 -95.32 6.7 -96 5 C-78.64749413 3.23134014 -61.29520431 2.2594331 -43.875 1.4375 C-39.93775135 1.24891683 -36.00057876 1.05895774 -32.06350708 0.86671448 C-29.63936386 0.748616 -27.21511384 0.63268011 -24.79074097 0.51939392 C-18.3214766 0.20720997 -11.89401305 -0.2427239 -5.45022583 -0.90293884 C-3 -1 -3 -1 0 0 Z " fill="#B2B4B7" transform="translate(328,413)"/>
<path d="M0 0 C0.5671875 0.21914062 1.134375 0.43828125 1.71875 0.6640625 C1.38875 0.9940625 1.05875 1.3240625 0.71875 1.6640625 C6.0364715 2.90607002 11.30076328 3.97240462 16.71875 4.6640625 C16.71875 4.9940625 16.71875 5.3240625 16.71875 5.6640625 C15.68878906 5.60863281 14.65882813 5.55320312 13.59765625 5.49609375 C1.505564 5.27229895 -5.47022868 9.01901767 -15.04052734 16.05078125 C-18.89490259 18.82586424 -22.90877592 21.35171036 -26.90625 23.9140625 C-28.5816194 25.00123352 -30.25607972 26.08980656 -31.9296875 27.1796875 C-32.79045898 27.73978516 -33.65123047 28.29988281 -34.53808594 28.87695312 C-37.48775804 30.79859782 -40.43550295 32.72317135 -43.3828125 34.6484375 C-44.91881104 35.65148926 -44.91881104 35.65148926 -46.48583984 36.67480469 C-48.46319368 37.96640955 -50.4401076 39.25868823 -52.41650391 40.55175781 C-57.66906197 43.98272167 -62.94839675 47.3591957 -68.28125 50.6640625 C-68.28125 49.6740625 -68.28125 48.6840625 -68.28125 47.6640625 C-70.26125 48.3240625 -72.24125 48.9840625 -74.28125 49.6640625 C-71.83495778 44.40976949 -68.07181348 42.16683114 -63.34375 39.1640625 C-62.54888184 38.64706787 -61.75401367 38.13007324 -60.93505859 37.59741211 C-59.24596378 36.50030826 -57.55382024 35.40788603 -55.85888672 34.31982422 C-53.3480259 32.70695643 -50.8464211 31.08075058 -48.34765625 29.44921875 C-44.18827878 26.7347904 -40.02170364 24.03166265 -35.85302734 21.33154297 C-32.33748542 19.05214755 -28.82658295 16.76565717 -25.31591797 14.47875977 C-22.79512395 12.8387508 -20.27078729 11.20430953 -17.74609375 9.5703125 C-15.05314265 7.82524846 -12.37665333 6.06151478 -9.72265625 4.2578125 C-8.75199219 3.608125 -7.78132813 2.9584375 -6.78125 2.2890625 C-5.9871875 1.74507813 -5.193125 1.20109375 -4.375 0.640625 C-2.28125 -0.3359375 -2.28125 -0.3359375 0 0 Z " fill="#B2B3B7" transform="translate(207.28125,64.3359375)"/>
<path d="M0 0 C11.64226972 0.55173696 23.03908528 2.7539923 34.5 4.75 C36.60223312 5.11233791 38.70452845 5.47431509 40.80688477 5.8359375 C56.21603773 8.49218686 71.61622252 11.20032954 87 14 C86.34 14.66 85.68 15.32 85 16 C84.3574765 18.06874034 84.3574765 18.06874034 84 20 C66.40575084 17.64224194 48.92140237 14.6850908 31.42651367 11.69482422 C27.64471644 11.049061 23.86237139 10.40652224 20.08007812 9.76367188 C12.71952743 8.51218147 5.35956836 7.25725577 -2 6 C-1.34 4.02 -0.68 2.04 0 0 Z " fill="#B2B3B7" transform="translate(144,165)"/>
<path d="M0 0 C2.02972567 3.69755825 3.2971552 7.62428749 4.61376953 11.61425781 C4.99459686 12.75630173 4.99459686 12.75630173 5.38311768 13.92141724 C6.21919808 16.4310486 7.05102247 18.94206872 7.8828125 21.453125 C8.46261858 23.19627446 9.04269015 24.93933564 9.62301636 26.68231201 C11.14797897 31.26482754 12.66933368 35.84853298 14.18994141 40.43249512 C15.74294088 45.11197043 17.29934779 49.79031199 18.85546875 54.46875 C21.90698272 63.64472662 24.95468656 72.82196385 28 82 C27.401875 82.28875 26.80375 82.5775 26.1875 82.875 C23.80672208 84.04742026 23.80672208 84.04742026 21 86 C20.84266891 85.31484314 20.68533783 84.62968628 20.52323914 83.92376709 C18.45127023 75.24867973 15.74124039 66.83417763 12.89453125 58.390625 C12.40517683 56.92817223 11.91622643 55.46558422 11.42765808 54.00286865 C10.15432534 50.19420489 8.87559364 46.38737629 7.59564209 42.58093262 C6.28503831 38.68007078 4.97966866 34.77745837 3.67382812 30.875 C1.12094029 23.24829893 -1.43766669 15.62353285 -4 8 C-3.01 7.34 -2.02 6.68 -1 6 C-0.26656572 2.93443402 -0.26656572 2.93443402 0 0 Z " fill="#B2B3B7" transform="translate(358,269)"/>
<path d="M0 0 C3.3 0.33 6.6 0.66 10 1 C10.22139648 2.02657715 10.44279297 3.0531543 10.67089844 4.11083984 C11.51278526 8.01379309 12.35541576 11.9165855 13.19824219 15.81933594 C13.55911406 17.49084337 13.91979882 19.16239122 14.28027344 20.83398438 C14.63049881 22.45793442 14.98104519 24.08181526 15.33190918 25.70562744 C15.68424378 27.33736635 16.0355583 28.96932584 16.38586426 30.60150146 C17.28583712 34.77757862 18.21412492 38.94427994 19.19335938 43.10253906 C19.38367737 43.92154694 19.57399536 44.74055481 19.77008057 45.5843811 C20.13301871 47.14019608 20.50320141 48.69434489 20.8817749 50.24642944 C22.36063417 56.6269901 22.36063417 56.6269901 21 60 C19.35 59.67 17.7 59.34 16 59 C12.99424285 48.08085565 10.278496 37.11667488 7.8125 26.0625 C7.56290527 24.95092529 7.31331055 23.83935059 7.05615234 22.6940918 C5.46878152 15.49526344 4.13872728 8.28309278 3 1 C2.01 0.67 1.02 0.34 0 0 Z " fill="#B2B3B7" transform="translate(282,77)"/>
<path d="M0 0 C0.33 0 0.66 0 1 0 C1.48828125 2.01822917 1.9765625 4.03645833 2.46484375 6.0546875 C2.94846992 8.0585657 2.94846992 8.0585657 4 10 C2.78570312 10.17015625 1.57140625 10.3403125 0.3203125 10.515625 C-1.41151443 10.76001948 -3.14328003 11.00484874 -4.875 11.25 C-5.79796875 11.38059814 -6.7209375 11.51119629 -7.671875 11.64575195 C-13.12316522 12.42431404 -18.56760126 13.23713901 -24.0078125 14.08984375 C-25.17070801 14.27192383 -26.33360352 14.45400391 -27.53173828 14.64160156 C-29.81449128 15.00090296 -32.09673663 15.36344705 -34.37841797 15.72949219 C-35.42916504 15.89481445 -36.47991211 16.06013672 -37.5625 16.23046875 C-38.49191406 16.37895264 -39.42132813 16.52743652 -40.37890625 16.68041992 C-42.9488241 16.99376032 -45.41403535 17.05757629 -48 17 C-48.66 15.02 -49.32 13.04 -50 11 C-39.08554595 9.10007652 -28.16375051 7.41968181 -17.17529297 6.00268555 C-16.28342285 5.88578369 -15.39155273 5.76888184 -14.47265625 5.6484375 C-13.68125244 5.54708496 -12.88984863 5.44573242 -12.07446289 5.34130859 C-9.81235676 5.02523987 -9.81235676 5.02523987 -7 4 C-4.66700175 3.96045766 -2.33291811 3.95598268 0 4 C0 2.68 0 1.36 0 0 Z " fill="#B2B4B7" transform="translate(425,180)"/>
</svg>
