<?xml version="1.0" encoding="UTF-8"?>
<svg version="1.1" xmlns="http://www.w3.org/2000/svg" width="512" height="512">
<path d="M0 0 C0.74079803 -0.00701431 1.48159607 -0.01402863 2.24484253 -0.02125549 C4.62553025 -0.0386861 7.00596955 -0.04510853 9.38671875 -0.046875 C10.60399155 -0.04788712 10.60399155 -0.04788712 11.84585571 -0.04891968 C23.5254387 -0.03345348 34.70409284 0.2963885 46.07421875 3.203125 C47.10820801 3.46053467 47.10820801 3.46053467 48.16308594 3.72314453 C71.32244493 9.59963494 92.46128278 20.21466997 111.07421875 35.203125 C112.04746094 35.97398438 113.02070313 36.74484375 114.0234375 37.5390625 C116.383565 39.41531449 118.73358478 41.30265449 121.07421875 43.203125 C121.7290625 42.74421875 122.38390625 42.2853125 123.05859375 41.8125 C137.03519892 32.41579935 151.11517125 29.82776814 167.67578125 32.86328125 C180.63182088 36.73000626 191.2330885 45.94662499 197.7890625 57.625 C202.52227069 67.12018968 202.72390675 76.79040293 203.07421875 87.203125 C203.98558594 87.50863281 204.89695312 87.81414062 205.8359375 88.12890625 C231.43997962 97.0422588 252.12647674 111.07377524 271.07421875 130.203125 C271.81800781 130.94949219 272.56179688 131.69585937 273.328125 132.46484375 C298.37899624 158.78733282 313.93767498 197.28769776 314.3125 233.671875 C314.32229385 234.46139557 314.33208771 235.25091614 314.34217834 236.06436157 C314.51662809 253.78485159 314.29332645 270.88359158 310.07421875 288.203125 C309.75275879 289.54165527 309.75275879 289.54165527 309.42480469 290.90722656 C302.81797574 317.5941994 291.20061864 342.92568298 275.07421875 365.203125 C274.67380371 365.7590332 274.27338867 366.31494141 273.86083984 366.88769531 C267.54541177 375.57109097 260.50949157 383.46970167 253.07421875 391.203125 C252.55456543 391.75000977 252.03491211 392.29689453 251.49951172 392.86035156 C243.60038075 401.14628937 235.25604049 408.37765461 226.07421875 415.203125 C225.51653809 415.6269043 224.95885742 416.05068359 224.38427734 416.48730469 C200.5748446 434.56496562 173.01051935 446.28853037 144.07421875 453.203125 C143.03652344 453.45191406 141.99882812 453.70070313 140.9296875 453.95703125 C132.56732324 455.7939254 124.93129015 456.09908577 117.07421875 452.203125 C115.55637373 450.99606361 114.05817667 449.76411191 112.57421875 448.515625 C92.50728547 433.29050407 59.42173573 430.80871913 35.07421875 429.203125 C35.14415039 429.81567139 35.21408203 430.42821777 35.28613281 431.05932617 C37.05408919 446.69948685 38.63466396 462.36030518 40.09924316 478.03164673 C40.29052651 480.05874259 40.48622982 482.08542634 40.68640137 484.11166382 C40.96986317 486.99270892 41.23685191 489.87485012 41.5 492.7578125 C41.58830582 493.62242599 41.67661163 494.48703949 41.76759338 495.37785339 C42.27149623 501.16212362 42.18356578 505.64484716 38.31561279 510.33601379 C35.61844677 512.58278915 34.39248041 512.7126927 30.92602539 512.73657227 C29.90138687 512.7524086 28.87674835 512.76824493 27.82106018 512.78456116 C26.71995407 512.77960129 25.61884796 512.77464142 24.484375 512.76953125 C23.34769882 512.77572983 22.21102264 512.78192841 21.03990173 512.78831482 C18.63671729 512.79541687 16.23348369 512.79223236 13.83032227 512.77954102 C10.15353761 512.76568837 6.47930353 512.79972895 2.80273438 512.83789062 C0.46744729 512.83884193 -1.86784297 512.83698241 -4.203125 512.83203125 C-5.30220688 512.84528946 -6.40128876 512.85854767 -7.53367615 512.87220764 C-15.08054129 512.78017946 -15.08054129 512.78017946 -19.09594727 510.03881836 C-22.95051212 504.06539998 -21.84174842 498.06721661 -21.1484375 491.30859375 C-21.05823837 490.36180252 -20.96803925 489.41501129 -20.87510681 488.43952942 C-20.58681452 485.42246764 -20.28830644 482.40654083 -19.98828125 479.390625 C-19.69303854 476.38532943 -19.40013045 473.37985773 -19.11216736 470.37385559 C-18.93306116 468.5079277 -18.7496977 466.64240164 -18.56129456 464.77738953 C-18.02381831 459.22353331 -17.84347594 453.78328376 -17.92578125 448.203125 C-24.25628135 455.54050668 -30.53904679 462.90228203 -36.6484375 470.42578125 C-39.66700569 474.10708825 -42.74968944 477.73198755 -45.83349609 481.35864258 C-48.80247258 484.85678995 -51.72205388 488.3900978 -54.61328125 491.953125 C-66.8076529 506.91096937 -66.8076529 506.91096937 -72.55078125 507.703125 C-81.89545501 507.48238467 -90.738213 494.54279208 -97.01000977 488.24926758 C-98.87987878 486.37397937 -100.75511024 484.50417035 -102.63085938 482.63476562 C-103.82193586 481.44302935 -105.01270265 480.25098345 -106.203125 479.05859375 C-106.76345932 478.50028366 -107.32379364 477.94197357 -107.90110779 477.366745 C-111.285423 473.96170185 -112.7621593 472.38938417 -113.42578125 467.578125 C-113.33220045 462.85654833 -111.37222339 460.5624111 -108.1640625 457.2578125 C-104.86998141 454.23392654 -101.44744488 451.40529838 -97.94921875 448.62109375 C-94.72187694 446.04005424 -91.57012881 443.38386497 -88.42578125 440.703125 C-83.57693224 436.58124733 -78.67415127 432.53319362 -73.73828125 428.515625 C-70.60778089 425.94165803 -67.51419322 423.32727774 -64.42578125 420.703125 C-60.36633202 417.25678433 -56.29116452 413.8327973 -52.17578125 410.453125 C-50.85513672 409.35871094 -50.85513672 409.35871094 -49.5078125 408.2421875 C-46.92578125 406.203125 -46.92578125 406.203125 -44.3125 404.4765625 C-39.68088944 401.35927437 -37.46209511 399.30402341 -36.36328125 393.703125 C-36.00973139 391.02125171 -36.00973139 391.02125171 -35.92578125 388.203125 C-35.80589844 387.05070312 -35.68601563 385.89828125 -35.5625 384.7109375 C-36.03330257 380.16490834 -37.96503522 378.38327283 -41.30078125 375.578125 C-41.88021484 375.07087891 -42.45964844 374.56363281 -43.05664062 374.04101562 C-56.14268676 362.82244302 -70.41944154 353.70393768 -85.54443359 345.49853516 C-87.69063224 344.33104182 -89.81857195 343.13599314 -91.9453125 341.93359375 C-98.4520983 338.35494899 -103.79417623 336.66524668 -111.2421875 336.41796875 C-118.9269271 335.80274214 -124.05426345 330.74875194 -128.92578125 325.203125 C-131.055583 322.26736949 -132.91255434 319.21024442 -134.73828125 316.078125 C-135.50640137 314.77149902 -135.50640137 314.77149902 -136.29003906 313.43847656 C-156.50026097 278.48668102 -166.38846736 240.61191984 -166.30078125 200.328125 C-166.30023743 199.3845816 -166.2996936 198.44103821 -166.2991333 197.46890259 C-166.258419 182.05918943 -165.36990201 167.2796719 -161.92578125 152.203125 C-161.60432129 150.78580078 -161.60432129 150.78580078 -161.27636719 149.33984375 C-149.6321347 99.77982074 -120.68460548 52.37280759 -76.93505859 24.95556641 C-53.8360622 11.06003228 -27.31771876 0.17297721 0 0 Z " fill="#FD4654" transform="translate(181.92578125,-0.203125)"/>
<path d="M0 0 C27.2877565 7.85556627 49.18547234 23.02796417 69 43 C69.74378906 43.74636719 70.48757813 44.49273437 71.25390625 45.26171875 C96.30477749 71.58420782 111.86345623 110.08457276 112.23828125 146.46875 C112.2480751 147.25827057 112.25786896 148.04779114 112.26795959 148.86123657 C112.44240934 166.58172659 112.2191077 183.68046658 108 201 C107.78569336 201.89235352 107.57138672 202.78470703 107.35058594 203.70410156 C100.74375699 230.3910744 89.12639989 255.72255798 73 278 C72.59958496 278.5559082 72.19916992 279.11181641 71.78662109 279.68457031 C65.47119302 288.36796597 58.43527282 296.26657667 51 304 C50.48034668 304.54688477 49.96069336 305.09376953 49.42529297 305.65722656 C41.526162 313.94316437 33.18182174 321.17452961 24 328 C23.44231934 328.4237793 22.88463867 328.84755859 22.31005859 329.28417969 C-1.49937415 347.36184062 -29.0636994 359.08540537 -58 366 C-59.55654297 366.37318359 -59.55654297 366.37318359 -61.14453125 366.75390625 C-70.50901822 368.81092873 -78.99197909 368.81686034 -87.32421875 363.5234375 C-90.93902336 360.83534851 -93.997772 358.04320652 -96.90600586 354.6081543 C-101.94170494 348.82404958 -107.40717788 343.46865882 -112.83984375 338.0625 C-113.97349143 336.93072136 -115.10691559 335.7987188 -116.24012756 334.66650391 C-119.19863851 331.71177989 -122.16014181 328.76007347 -125.12231445 325.809021 C-128.15434725 322.78728529 -131.18349067 319.76265606 -134.21289062 316.73828125 C-140.13912967 310.82271195 -146.06853842 304.91033271 -152 299 C-151.05489344 297.88717822 -150.10831667 296.77560499 -149.16113281 295.66455078 C-148.63416809 295.04540802 -148.10720337 294.42626526 -147.56427002 293.7883606 C-133.91251196 278.18091056 -115.40691123 267.07388326 -97.38574219 257.29541016 C-95.22881107 256.12423982 -93.08688056 254.92938078 -90.9453125 253.73046875 C-84.75668326 250.35537755 -79.61919329 248.46261627 -72.53515625 248.22265625 C-67.05865232 247.741669 -62.58869818 245.286089 -58.375 241.875 C-23.94115085 200.19191945 -12.82787105 141.70768159 -17.30908203 89.00585938 C-18.91087522 73.59754995 -22.54806586 58.80481193 -27 44 C-27.67407167 41.66870361 -28.33747488 39.33461233 -29 37 C-28.29875 36.5875 -27.5975 36.175 -26.875 35.75 C-12.21975895 26.82941849 -5.44690337 16.02030402 0 0 Z " fill="#0054A2" transform="translate(384,87)"/>
<path d="M0 0 C73.59 0 147.18 0 223 0 C219.96003123 2.27997658 217.44347675 3.89819588 214.10546875 5.56640625 C213.15720215 6.04674316 212.20893555 6.52708008 211.23193359 7.02197266 C210.22727051 7.53034668 209.22260742 8.0387207 208.1875 8.5625 C198.65442458 13.46807102 189.66941388 18.69916637 181 25 C180.45762695 25.38833008 179.91525391 25.77666016 179.35644531 26.17675781 C169.8611324 33.02089289 161.43093111 40.90723901 153 49 C158.49719258 55.69529866 164.60953152 61.73696491 170.7421875 67.83984375 C171.87726406 68.97305199 173.01211763 70.10648362 174.14675903 71.24012756 C177.11350744 74.20308335 180.08324802 77.16302193 183.0536499 80.12231445 C186.0922886 83.15066856 189.12804909 86.18190499 192.1640625 89.21289062 C198.1065826 95.14473089 204.052271 101.07338261 210 107 C208 108 208 108 205.85888672 107.45849609 C204.97475098 107.14992676 204.09061523 106.84135742 203.1796875 106.5234375 C202.18171143 106.1845752 201.18373535 105.84571289 200.15551758 105.49658203 C199.07294678 105.12645996 197.99037598 104.75633789 196.875 104.375 C177.1586017 97.87808274 157.69144693 94.36449502 137 93 C137.06993164 93.61254639 137.13986328 94.22509277 137.21191406 94.85620117 C138.97987044 110.49636185 140.56044521 126.15718018 142.02502441 141.82852173 C142.21630776 143.85561759 142.41201107 145.88230134 142.61218262 147.90853882 C142.89564442 150.78958392 143.16263316 153.67172512 143.42578125 156.5546875 C143.51408707 157.41930099 143.60239288 158.28391449 143.69337463 159.17472839 C144.19727748 164.95899862 144.10934703 169.44172216 140.24139404 174.13288879 C137.54422802 176.37966415 136.31826166 176.5095677 132.85180664 176.53344727 C131.82716812 176.5492836 130.8025296 176.56511993 129.74684143 176.58143616 C128.64573532 176.57647629 127.54462921 176.57151642 126.41015625 176.56640625 C124.70514198 176.57570412 124.70514198 176.57570412 122.96568298 176.58518982 C120.56249854 176.59229187 118.15926494 176.58910736 115.75610352 176.57641602 C112.07931886 176.56256337 108.40508478 176.59660395 104.72851562 176.63476562 C102.39322854 176.63571693 100.05793828 176.63385741 97.72265625 176.62890625 C96.62357437 176.64216446 95.52449249 176.65542267 94.3921051 176.66908264 C86.84523996 176.57705446 86.84523996 176.57705446 82.82983398 173.83569336 C78.97526913 167.86227498 80.08403283 161.86409161 80.77734375 155.10546875 C80.86754288 154.15867752 80.957742 153.21188629 81.05067444 152.23640442 C81.33896673 149.21934264 81.63747481 146.20341583 81.9375 143.1875 C82.23274271 140.18220443 82.5256508 137.17673273 82.81361389 134.17073059 C82.99272009 132.3048027 83.17608355 130.43927664 83.36448669 128.57426453 C83.90196294 123.02040831 84.08230531 117.58015876 84 112 C77.6694999 119.33738168 71.38673446 126.69915703 65.27734375 134.22265625 C62.25877556 137.90396325 59.17609181 141.52886255 56.09228516 145.15551758 C53.12330867 148.65366495 50.20372737 152.1869728 47.3125 155.75 C35.11812835 170.70784437 35.11812835 170.70784437 29.375 171.5 C20.03032624 171.27925967 11.18756825 158.33966708 4.91577148 152.04614258 C3.04590247 150.17085437 1.17067101 148.30104535 -0.70507812 146.43164062 C-1.89615461 145.23990435 -3.0869214 144.04785845 -4.27734375 142.85546875 C-5.11784523 142.01800362 -5.11784523 142.01800362 -5.97532654 141.16362 C-9.35964175 137.75857685 -10.83637805 136.18625917 -11.5 131.375 C-11.4064192 126.65342333 -9.44644214 124.3592861 -6.23828125 121.0546875 C-2.94420016 118.03080154 0.47833637 115.20217338 3.9765625 112.41796875 C7.20390431 109.83692924 10.35565244 107.18073997 13.5 104.5 C18.34884901 100.37812233 23.25162998 96.33006862 28.1875 92.3125 C31.31800036 89.73853303 34.41158803 87.12415274 37.5 84.5 C41.55944923 81.05365933 45.63461673 77.6296723 49.75 74.25 C50.63042969 73.52039063 51.51085937 72.79078125 52.41796875 72.0390625 C55 70 55 70 57.61328125 68.2734375 C62.24489181 65.15614937 64.46368614 63.10089841 65.5625 57.5 C65.91604986 54.81812671 65.91604986 54.81812671 66 52 C66.11988281 50.84757812 66.23976563 49.69515625 66.36328125 48.5078125 C65.89247868 43.96178334 63.96074603 42.18014783 60.625 39.375 C59.75584961 38.61413086 59.75584961 38.61413086 58.86914062 37.83789062 C41.13906964 22.63802914 21.01456657 11.03048219 0 1 C0 0.67 0 0.34 0 0 Z " fill="#E3917E" transform="translate(80,336)"/>
<path d="M0 0 C6.64705117 0.44922797 11.54114854 2.27805597 17.4375 5.3125 C18.30568359 5.754729 19.17386719 6.19695801 20.06835938 6.65258789 C36.12016349 15.05753966 49.29915756 26.19819696 62 39 C62.74378906 39.74636719 63.48757813 40.49273437 64.25390625 41.26171875 C89.30477749 67.58420782 104.86345623 106.08457276 105.23828125 142.46875 C105.25297203 143.65303085 105.25297203 143.65303085 105.26795959 144.86123657 C105.44240934 162.58172659 105.2191077 179.68046658 101 197 C100.78569336 197.89235352 100.57138672 198.78470703 100.35058594 199.70410156 C93.74375699 226.3910744 82.12639989 251.72255798 66 274 C65.59958496 274.5559082 65.19916992 275.11181641 64.78662109 275.68457031 C58.47119302 284.36796597 51.43527282 292.26657667 44 300 C43.48034668 300.54688477 42.96069336 301.09376953 42.42529297 301.65722656 C34.526162 309.94316437 26.18182174 317.17452961 17 324 C16.44231934 324.4237793 15.88463867 324.84755859 15.31005859 325.28417969 C-8.49937415 343.36184062 -36.0636994 355.08540537 -65 362 C-66.03769531 362.24878906 -67.07539063 362.49757813 -68.14453125 362.75390625 C-77.50901822 364.81092873 -85.99197909 364.81686034 -94.32421875 359.5234375 C-98.83160349 356.17159622 -102.3810216 352.45276232 -106.03320312 348.21362305 C-109.50046715 344.31122944 -113.22692999 340.66923547 -116.9375 337 C-118.10635742 335.83791016 -118.10635742 335.83791016 -119.29882812 334.65234375 C-121.1969242 332.76589243 -123.09733149 330.88183755 -125 329 C-123 328 -123 328 -119.81079102 328.91870117 C-114.20784735 330.50851714 -108.78886105 330.33427715 -102.99633789 330.31567383 C-100.96639677 330.31254455 -98.93796149 330.33590987 -96.90820312 330.36132812 C-62.52226927 330.53084067 -33.83291161 310.95612957 -9 289 C-8.08347656 288.2059375 -7.16695313 287.411875 -6.22265625 286.59375 C-1.82648464 282.73305192 2.28187485 278.80758361 6.04296875 274.32421875 C7.55939907 272.52326857 9.10001484 270.76739876 10.67578125 269.01953125 C45.9703306 229.49686751 65.63868624 175.92168855 63 123 C61.94699868 109.13655928 59.87431849 95.36459144 56 82 C55.71697021 81.0112085 55.71697021 81.0112085 55.42822266 80.00244141 C46.80222757 50.86056611 28.98443846 26.10406933 6.41015625 6.15625 C4.19277223 4.17246397 2.08145481 2.12491907 0 0 Z " fill="#004281" transform="translate(391,91)"/>
<path d="M0 0 C3.1982772 2.6620391 4.43604196 5.87991914 6.125 9.625 C12.06974599 21.96725859 21.52000769 29.1389502 34.375 33.875 C45.29104535 36.76454142 56.32466468 34.93528042 67 32 C87.93261169 80.88494108 84.39530265 142.23851088 65 191 C46.81693737 233.77729829 46.81693737 233.77729829 33.4375 240.75 C32.29087891 241.36101562 32.29087891 241.36101562 31.12109375 241.984375 C27.90085243 243.52629534 25.33919276 244.12571513 21.81132984 244.13422108 C20.95337498 244.13867892 20.09542011 244.14313676 19.21146661 244.14772969 C17.79699991 244.14745315 17.79699991 244.14745315 16.35395813 244.14717102 C15.3524855 244.15084771 14.35101287 244.1545244 13.31919259 244.1583125 C9.94757184 244.16936705 6.57598188 244.17319619 3.2043457 244.17700195 C0.79326784 244.18326526 -1.61780906 244.18991194 -4.02888489 244.19691467 C-11.27578623 244.21615453 -18.52268505 244.22674481 -25.76960418 244.23564246 C-29.18303612 244.24002641 -32.59646651 244.24539296 -36.00989723 244.25063133 C-47.35831092 244.2676434 -58.70672364 244.28213718 -70.05514812 244.28938007 C-72.99990019 244.29128994 -75.94465226 244.29321028 -78.8894043 244.29516602 C-79.62130054 244.29564976 -80.35319679 244.2961335 -81.10727171 244.2966319 C-92.96133433 244.30493074 -104.81529599 244.33026525 -116.66931453 244.36274669 C-128.84194374 244.39582898 -141.01452167 244.4138299 -153.18719608 244.41702431 C-160.02074717 244.41918838 -166.85415106 244.42792171 -173.68765831 244.45348549 C-180.11691159 244.47748152 -186.54597191 244.48101079 -192.9752636 244.47072411 C-195.33431122 244.47022794 -197.69337176 244.47657198 -200.05237961 244.49028015 C-203.27491789 244.50795764 -206.49650111 244.5009125 -209.71903992 244.48774719 C-210.65086411 244.49871644 -211.5826883 244.50968568 -212.54274958 244.52098733 C-219.55790014 244.45187517 -224.57493518 242.62984867 -230.13671875 238.359375 C-240 228.12342569 -240 228.12342569 -240 223 C-239.06223001 222.99853344 -238.12446001 222.99706688 -237.15827274 222.99555588 C-214.2780241 222.95886486 -191.39792075 222.89929006 -168.5177927 222.81609726 C-157.45285887 222.77638768 -146.38799533 222.74395427 -135.32299805 222.72900391 C-125.6721182 222.71594537 -116.02139354 222.6888741 -106.37060112 222.64538693 C-101.26657409 222.62286627 -96.1627378 222.60708364 -91.05865669 222.60811615 C-86.24129401 222.60886835 -81.42435144 222.59069536 -76.60709763 222.55883217 C-74.85173272 222.55040709 -73.09632027 222.54853207 -71.34094429 222.55419731 C-42.32898734 222.63525999 -16.04347149 212.15936484 5.1875 192.25 C18.04328194 178.69053315 26.34320659 161.99502972 31 144 C31.33644531 142.75476563 31.67289062 141.50953125 32.01953125 140.2265625 C36.58575401 122.67727352 38.27466304 105.08606835 38.3125 87 C38.31787781 85.97096558 38.31787781 85.97096558 38.32336426 84.92114258 C38.33645922 80.27326749 38.21648615 75.64395849 38 71 C37.95514969 69.96853348 37.95514969 69.96853348 37.90939331 68.91622925 C37.73919469 61.04176522 37.73919469 61.04176522 34.48120117 54.20361328 C32.49552016 52.98963479 30.65412823 52.26469607 28.4375 51.5625 C26.97493916 50.9659912 25.51652919 50.35920134 24.0625 49.7421875 C23.35996094 49.45569336 22.65742188 49.16919922 21.93359375 48.87402344 C12.56318058 44.63840738 6.63393467 35.04713996 2.6796875 25.96875 C-0.39821486 17.27313774 -0.41976151 9.08317265 0 0 Z " fill="#FA2B3A" transform="translate(288,92)"/>
<path d="M0 0 C10.27875297 7.76251424 18.63763251 17.57512447 20.6875 30.6875 C22.13713957 46.80246344 19.0365738 60.22103223 8.79296875 73.0625 C0.22650119 82.47131039 -11.73391534 88.0252163 -24.36328125 88.8984375 C-38.69205124 89.33621426 -50.96368602 84.95251924 -61.5625 75.1875 C-71.66433351 64.52266622 -75.84513375 51.4486777 -75.55859375 36.953125 C-74.5092792 23.02888752 -67.47297432 11.04367183 -57.3125 1.6875 C-54.13118501 -0.71751325 -50.91322247 -2.60511517 -47.3125 -4.3125 C-46.24708984 -4.82103516 -46.24708984 -4.82103516 -45.16015625 -5.33984375 C-30.7724403 -10.82689887 -12.57489181 -8.34566811 0 0 Z " fill="#E9F5FE" transform="translate(363.3125,39.3125)"/>
<path d="M0 0 C4.93872808 3.99915621 9.1821935 8.24992262 13.25 13.125 C13.765625 13.73214844 14.28125 14.33929688 14.8125 14.96484375 C15.79689333 16.12937091 16.77370032 17.30036914 17.74145508 18.47875977 C18.74368129 19.69018005 19.78546366 20.86884621 20.83984375 22.03515625 C25.02048021 29.11549342 21.80146936 43.10419533 21.1875 51.125 C21.11764893 52.12055908 21.04779785 53.11611816 20.97583008 54.1418457 C20.23104436 62.84138752 16.99031257 67.23260376 11.375 73.625 C10.2893809 74.87544875 9.20475394 76.1267595 8.12109375 77.37890625 C7.5885498 77.9939502 7.05600586 78.60899414 6.50732422 79.24267578 C4.44283344 81.64957643 2.43637121 84.10096059 0.4375 86.5625 C-3.28454963 91.14607287 -7.08314704 95.6577038 -10.90771484 100.15551758 C-13.87669133 103.65366495 -16.79627263 107.1869728 -19.6875 110.75 C-31.88187165 125.70784437 -31.88187165 125.70784437 -37.625 126.5 C-46.96967376 126.27925967 -55.81243175 113.33966708 -62.08422852 107.04614258 C-63.95409753 105.17085437 -65.82932899 103.30104535 -67.70507812 101.43164062 C-68.89615461 100.23990435 -70.0869214 99.04785845 -71.27734375 97.85546875 C-72.11784523 97.01800362 -72.11784523 97.01800362 -72.97532654 96.16362 C-76.35964175 92.75857685 -77.83637805 91.18625917 -78.5 86.375 C-78.4064192 81.65342333 -76.44644214 79.3592861 -73.23828125 76.0546875 C-69.94420016 73.03080154 -66.52166363 70.20217338 -63.0234375 67.41796875 C-59.79609569 64.83692924 -56.64434756 62.18073997 -53.5 59.5 C-48.65115099 55.37812233 -43.74837002 51.33006862 -38.8125 47.3125 C-35.68199964 44.73853303 -32.58841197 42.12415274 -29.5 39.5 C-25.44055077 36.05365933 -21.36538327 32.6296723 -17.25 29.25 C-16.36957031 28.52039063 -15.48914063 27.79078125 -14.58203125 27.0390625 C-12 25 -12 25 -9.38671875 23.2734375 C-4.71731519 20.15336325 -4.71731519 20.15336325 -2.03515625 15.3671875 C-1.51258541 12.56742838 -1.20783888 9.83907914 -1 7 C-0.80210227 5.60264895 -0.59554477 4.20645605 -0.375 2.8125 C-0.189375 1.4203125 -0.189375 1.4203125 0 0 Z " fill="#C4573A" transform="translate(147,381)"/>
<path d="M0 0 C31.35 0 62.7 0 95 0 C91.96003123 2.27997658 89.44347675 3.89819588 86.10546875 5.56640625 C85.15720215 6.04674316 84.20893555 6.52708008 83.23193359 7.02197266 C82.22727051 7.53034668 81.22260742 8.0387207 80.1875 8.5625 C70.65442458 13.46807102 61.66941388 18.69916637 53 25 C52.45762695 25.38833008 51.91525391 25.77666016 51.35644531 26.17675781 C41.8611324 33.02089289 33.43093111 40.90723901 25 49 C30.49719258 55.69529866 36.60953152 61.73696491 42.7421875 67.83984375 C43.87726406 68.97305199 45.01211763 70.10648362 46.14675903 71.24012756 C49.11350744 74.20308335 52.08324802 77.16302193 55.0536499 80.12231445 C58.0922886 83.15066856 61.12804909 86.18190499 64.1640625 89.21289062 C70.1065826 95.14473089 76.052271 101.07338261 82 107 C80 108 80 108 77.85888672 107.45849609 C76.97475098 107.14992676 76.09061523 106.84135742 75.1796875 106.5234375 C74.18171143 106.1845752 73.18373535 105.84571289 72.15551758 105.49658203 C71.07294678 105.12645996 69.99037598 104.75633789 68.875 104.375 C49.74654099 98.07181959 30.8479586 94.44739065 10.75219727 93.21777344 C9 93 9 93 8 92 C7.67076509 89.56396993 7.4012637 87.14506274 7.16796875 84.69921875 C7.09135513 83.93164749 7.01474152 83.16407623 6.93580627 82.37324524 C6.68165185 79.81177076 6.4343316 77.24968981 6.1875 74.6875 C6.0128542 72.90297923 5.83804701 71.11847426 5.66308594 69.33398438 C5.09946913 63.55686419 4.54837408 57.7785846 4 52 C3.90487122 50.99954651 3.80974243 49.99909302 3.71173096 48.96832275 C3.1400576 42.94688167 2.57511929 36.92485637 2.01846313 30.90200806 C1.84043499 28.97757587 1.66138914 27.05323754 1.48129272 25.1289978 C1.22850199 22.41966692 0.98071152 19.70992442 0.734375 17 C0.65957413 16.20572098 0.58477325 15.41144196 0.50770569 14.59309387 C0.44038742 13.84049789 0.37306915 13.08790192 0.30371094 12.3125 C0.24471619 11.66925781 0.18572144 11.02601563 0.12493896 10.36328125 C-0.0574439 6.91342076 0 3.45467812 0 0 Z " fill="#DC7E66" transform="translate(208,336)"/>
<path d="M0 0 C2.97 0 5.94 0 9 0 C9.0640654 0.68490005 9.1281308 1.36980011 9.19413757 2.07545471 C10.0207647 10.90489497 10.85247253 19.73385083 11.6875 28.5625 C11.75521984 29.27878193 11.82293968 29.99506386 11.89271164 30.7330513 C13.57934945 48.56195014 15.31529746 66.38228112 17.26184082 84.18505859 C19.17454856 101.69530384 20.95424731 119.2169833 22.58200073 136.75613403 C22.8171613 139.27402161 23.0566156 141.79151223 23.30056763 144.30856323 C23.63861977 147.81015037 23.96017529 151.31287388 24.27734375 154.81640625 C24.38114349 155.86100006 24.48494324 156.90559387 24.59188843 157.98184204 C25.03668607 163.10346935 25.39694653 167.27885121 23 172 C21.02 173.98 21.02 173.98 19 176 C12.73 176 6.46 176 0 176 C0 117.92 0 59.84 0 0 Z " fill="#E3917F" transform="translate(199,336)"/>
<path d="M0 0 C31.68 0 63.36 0 96 0 C93.5625 27.375 93.5625 27.375 92.79907227 35.89599609 C91.64249095 48.9228733 90.58050656 61.93364545 90 75 C89.67 75 89.34 75 89 75 C88.7834375 73.6078125 88.7834375 73.6078125 88.5625 72.1875 C86.80951456 66.09495618 82.10100053 61.65281711 78 57 C77.19820313 56.06414062 76.39640625 55.12828125 75.5703125 54.1640625 C70.63049016 48.52982424 65.44727111 43.6694135 59.5625 39.03515625 C57.40690445 37.32316649 55.39227083 35.55617722 53.375 33.6875 C37.52326821 19.84110777 18.75042731 10.27488438 0 1 C0 0.67 0 0.34 0 0 Z " fill="#DC7E65" transform="translate(80,336)"/>
<path d="M0 0 C0.33 0 0.66 0 1 0 C1.60332287 34.79161901 -5.36358391 68.75703682 -21 100 C-21.35030273 100.71542969 -21.70060547 101.43085938 -22.06152344 102.16796875 C-25.95185898 110.06748207 -30.16774436 117.61311424 -35.25 124.8125 C-35.65009277 125.38129883 -36.05018555 125.95009766 -36.46240234 126.53613281 C-40.09112872 131.48972779 -43.99216252 134.88112366 -49.6875 137.1875 C-50.45449219 137.51105469 -51.22148437 137.83460938 -52.01171875 138.16796875 C-54.7218034 138.92254134 -56.91733512 139.15217865 -59.703125 139.3203125 C-65.52435826 139.83033972 -69.95480614 141.96895276 -75.0625 144.6875 C-75.89587891 145.10966797 -76.72925781 145.53183594 -77.58789062 145.96679688 C-83.3380249 148.93359767 -88.67101115 152.3406446 -94 156 C-95.50820313 156.98226562 -95.50820313 156.98226562 -97.046875 157.984375 C-106.66319327 164.26555398 -115.86238184 170.86238184 -124 179 C-127.63 175.37 -131.26 171.74 -135 168 C-120.48250968 149.8531371 -100.5799012 137.25297014 -80.38574219 126.29541016 C-78.22881107 125.12423982 -76.08688056 123.92938078 -73.9453125 122.73046875 C-67.75668326 119.35537755 -62.61919329 117.46261627 -55.53515625 117.22265625 C-50.05865232 116.741669 -45.58869818 114.286089 -41.375 110.875 C-15.65123294 79.73570303 -4.34470497 39.40533781 0 0 Z " fill="#024280" transform="translate(367,218)"/>
<path d="M0 0 C4.62 0 9.24 0 14 0 C14 58.08 14 116.16 14 176 C9.38 176 4.76 176 0 176 C0 117.92 0 59.84 0 0 Z " fill="#DD7F66" transform="translate(185,336)"/>
<path d="M0 0 C3.80635497 3.20760251 7.54563567 6.40746109 11 10 C9.69316301 12.88330643 8.30277863 14.94564108 6.0640564 17.17645264 C5.46390213 17.77935623 4.86374786 18.38225983 4.2454071 19.00343323 C3.58869522 19.65295456 2.93198334 20.30247589 2.25537109 20.97167969 C1.56257553 21.6647673 0.86977997 22.35785492 0.1559906 23.07194519 C-2.13348474 25.36002799 -4.4299613 27.64094651 -6.7265625 29.921875 C-8.31597709 31.5075592 -9.90495048 33.09368574 -11.49349976 34.68023682 C-15.67467585 38.85377854 -19.86182346 43.02127917 -24.05023193 47.18756104 C-28.32356063 51.44042719 -32.59122973 55.69896419 -36.859375 59.95703125 C-45.23404581 68.31025559 -53.61503443 76.65711048 -62 85 C-63.12546657 84.03869948 -64.25045671 83.07684116 -65.37524414 82.11474609 C-66.00177383 81.57917084 -66.62830353 81.04359558 -67.27381897 80.49179077 C-75.27272294 73.57902153 -75.27272294 73.57902153 -75.8125 68.0625 C-75.24550708 61.6530148 -70.13228655 57.83735979 -65.54296875 53.8828125 C-63.71562973 52.37920411 -61.87501737 50.89162342 -60.0234375 49.41796875 C-56.79609569 46.83692924 -53.64434756 44.18073997 -50.5 41.5 C-45.65115099 37.37812233 -40.74837002 33.33006862 -35.8125 29.3125 C-32.68199964 26.73853303 -29.58841197 24.12415274 -26.5 21.5 C-17.82295058 14.1334666 -9.02857827 6.9330564 0 0 Z " fill="#D6684A" transform="translate(144,399)"/>
<path d="M0 0 C2.67843076 3.89871968 2.11595666 7.93942728 1.8125 12.4375 C1.78091797 13.18837891 1.74933594 13.93925781 1.71679688 14.71289062 C1.23930964 22.58104983 -2.59270807 26.8963066 -7.625 32.625 C-8.7106191 33.87544875 -9.79524606 35.1267595 -10.87890625 36.37890625 C-11.4114502 36.9939502 -11.94399414 37.60899414 -12.49267578 38.24267578 C-14.55716656 40.64957643 -16.56362879 43.10096059 -18.5625 45.5625 C-22.28454963 50.14607287 -26.08314704 54.6577038 -29.90771484 59.15551758 C-32.87669133 62.65366495 -35.79627263 66.1869728 -38.6875 69.75 C-50.88187165 84.70784437 -50.88187165 84.70784437 -56.625 85.5 C-61.36752585 85.44835725 -63.7060383 83.27849003 -67.04296875 80.1171875 C-69.46864557 77.4930022 -71.71900654 74.75105752 -74 72 C-64.65276679 62.60651672 -55.30020616 53.21837435 -45.94072151 43.83709717 C-41.59535606 39.48127476 -37.25187859 35.12360328 -32.91259766 30.76171875 C-28.72836702 26.55582783 -24.53933251 22.35477831 -20.34685898 18.15710449 C-18.74466158 16.55119905 -17.14423142 14.94352853 -15.54556656 13.33410645 C-13.31377704 11.08789266 -11.07590258 8.84792083 -8.83642578 6.609375 C-7.83733185 5.59949524 -7.83733185 5.59949524 -6.8180542 4.56921387 C-6.20948578 3.96339478 -5.60091736 3.35757568 -4.97390747 2.73339844 C-4.4447983 2.20244568 -3.91568913 1.67149292 -3.37054634 1.12445068 C-2 0 -2 0 0 0 Z " fill="#D5694A" transform="translate(166,422)"/>
<path d="M0 0 C3.93467549 1.59247554 6.57577776 4.30662369 9.50292969 7.27587891 C10.03996017 7.81261734 10.57699066 8.34935577 11.1302948 8.90235901 C12.89893859 10.67239283 14.66039824 12.44939857 16.421875 14.2265625 C17.64883466 15.45725344 18.87623749 16.6875027 20.10406494 17.91732788 C23.33067488 21.15156516 26.55123291 24.39176408 29.77056885 27.63323975 C33.05825672 30.94140534 36.35163068 34.24389946 39.64453125 37.546875 C46.10193298 44.02571079 52.55295568 50.51085869 59 57 C57 58 57 58 54.85888672 57.45849609 C53.53268311 56.99564209 53.53268311 56.99564209 52.1796875 56.5234375 C51.18171143 56.1845752 50.18373535 55.84571289 49.15551758 55.49658203 C48.07294678 55.12645996 46.99037598 54.75633789 45.875 54.375 C26.74654099 48.07181959 7.8479586 44.44739065 -12.24780273 43.21777344 C-14 43 -14 43 -15 42 C-15.48537243 39.30348651 -15.77509043 36.7265353 -16 34 C-16.12503906 32.85144531 -16.25007812 31.70289063 -16.37890625 30.51953125 C-16.84207351 23.30735533 -16.61939344 18.76979964 -11.9375 13.0625 C-10.31748163 11.3502021 -8.67207986 9.66149708 -7 8 C-5.63494537 6.44700307 -4.27948126 4.88547804 -2.9375 3.3125 C-1.96020724 2.2066744 -0.98183135 1.10179789 0 0 Z " fill="#C35639" transform="translate(231,386)"/>
<path d="M0 0 C19.78782832 2.82683262 38.93023765 17.63656448 54 30 C55.665133 31.33524816 57.33121712 32.66931625 59 34 C58.41098089 37.28270409 57.38176788 39.00670276 55.125 41.4375 C52.70437269 44.13743046 50.74472326 46.80134069 49 50 C45.01042841 48.6701428 43.79360658 46.09998458 41.5625 42.75 C36.74593143 35.77282824 31.37696445 29.60573649 25.48046875 23.52734375 C24.0584532 22.06030396 22.6536671 20.5783201 21.25 19.09375 C15.39837864 13.03800231 9.21243696 7.88307851 2.45703125 2.8984375 C1.64621094 2.27195312 0.83539063 1.64546875 0 1 C0 0.67 0 0.34 0 0 Z " fill="#FB2C3B" transform="translate(244,9)"/>
<path d="M0 0 C4.93872808 3.99915621 9.1821935 8.24992262 13.25 13.125 C13.765625 13.73214844 14.28125 14.33929688 14.8125 14.96484375 C15.79636212 16.12874249 16.77321881 17.29861301 17.74169922 18.4753418 C18.75122936 19.69856953 19.78917757 20.89831915 20.8359375 22.08984375 C23.19069929 25.95386561 22.48954341 30.64564019 22 35 C20.625 38.1875 20.625 38.1875 19 40 C18.34 40 17.68 40 17 40 C15.44921875 38.20703125 15.44921875 38.20703125 13.6875 35.8125 C9.04601638 29.62618962 9.04601638 29.62618962 3.06640625 24.8125 C0.51363056 22.98126909 -0.64089294 21.87536087 -2 19 C-2.33184102 12.63065493 -1.09282897 6.25098171 0 0 Z " fill="#C4573A" transform="translate(147,381)"/>
<path d="M0 0 C0.33 0 0.66 0 1 0 C1.3960414 15.46761697 1.3960414 15.46761697 -1 23 C-1.24492187 23.79792969 -1.48984375 24.59585938 -1.7421875 25.41796875 C-5.15052675 35.14530864 -11.79574019 42.8870221 -20 49 C-20.99 49 -21.98 49 -23 49 C-24.65 43.39 -26.3 37.78 -28 32 C-26.35 31.01 -24.7 30.02 -23 29 C-11.21431099 21.37396594 -6.0629173 12.3503871 0 0 Z " fill="#024482" transform="translate(383,92)"/>
<path d="M0 0 C3.21524305 1.40844718 5.32183868 3.10344786 7.75 5.625 C8.67039063 6.57246094 8.67039063 6.57246094 9.609375 7.5390625 C10.06828125 8.02117187 10.5271875 8.50328125 11 9 C9.70139847 11.88077443 8.35346099 13.86718199 6.05859375 16.03125 C5.47875732 16.58925293 4.8989209 17.14725586 4.30151367 17.72216797 C3.3788269 18.60219482 3.3788269 18.60219482 2.4375 19.5 C-3.14910122 24.9305991 -7.93502909 30.50874729 -12.42578125 36.8671875 C-12.94527344 37.57101562 -13.46476563 38.27484375 -14 39 C-14.33 39 -14.66 39 -15 39 C-16.69852917 31.42859033 -18.16520305 22.86471942 -14.23828125 15.85546875 C-11.95026103 13.07799089 -9.5518096 10.53565891 -7 8 C-5.63494537 6.44700307 -4.27948126 4.88547804 -2.9375 3.3125 C-1.96020724 2.2066744 -0.98183135 1.10179789 0 0 Z " fill="#A84B30" transform="translate(231,386)"/>
<path d="M0 0 C2.9315431 3.03879468 3.40960792 5.27878163 3.375 9.4375 C3.26103931 13.69962984 2.95315295 16.70609863 0 20 C-0.66 20 -1.32 20 -2 20 C-3.43581474 18.38542921 -4.80144783 16.70780925 -6.125 15 C-6.84945312 14.071875 -7.57390625 13.14375 -8.3203125 12.1875 C-8.87460938 11.465625 -9.42890625 10.74375 -10 10 C-8.68515589 7.09217167 -7.26624689 4.99358442 -5 2.75 C-4.484375 2.22921875 -3.96875 1.7084375 -3.4375 1.171875 C-2 0 -2 0 0 0 Z " fill="#A74B30" transform="translate(166,401)"/>
<path d="M0 0 C7.36607143 5.89285714 7.36607143 5.89285714 8 10 C6.71372289 11.17260611 5.42080217 12.3379283 4.125 13.5 C3.40570313 14.1496875 2.68640625 14.799375 1.9453125 15.46875 C0 17 0 17 -2 17 C-1.34 11.39 -0.68 5.78 0 0 Z " fill="#A84C31" transform="translate(147,381)"/>
</svg>
