<?xml version="1.0" encoding="UTF-8"?>
<svg version="1.1" xmlns="http://www.w3.org/2000/svg" width="512" height="512">
<path d="M0 0 C0.88686996 -0.00979385 1.77373993 -0.01958771 2.68748474 -0.02967834 C64.72984935 -0.57337837 123.74111084 16.12076166 171.3828125 57.23828125 C172.15109375 57.89570312 172.919375 58.553125 173.7109375 59.23046875 C186.49064963 70.44445456 198.41627051 82.44419878 208.3828125 96.23828125 C208.83994629 96.86702148 209.29708008 97.49576172 209.76806641 98.14355469 C216.7167041 107.77433297 222.89637425 117.70713939 228.3828125 128.23828125 C228.7835498 129.00172852 229.18428711 129.76517578 229.59716797 130.55175781 C246.96543787 164.06756799 254.83029941 200.0056308 254.7578125 237.55078125 C254.75760101 238.563078 254.75738953 239.57537476 254.75717163 240.61834717 C254.723474 256.81013781 253.82986725 272.36508259 250.3828125 288.23828125 C250.19025879 289.14562012 249.99770508 290.05295898 249.79931641 290.98779297 C240.9534295 331.61088429 221.70029605 370.37871574 193.4453125 400.98828125 C191.63224156 402.96617683 189.91242236 404.99024942 188.1953125 407.05078125 C150.76995012 449.70027888 92.22684316 475.34429883 36.3828125 480.23828125 C33.1977987 480.39550528 30.01665832 480.44746069 26.828125 480.4765625 C25.93710587 480.48635635 25.04608673 480.49615021 24.12806702 480.50624084 C-39.91281978 481.06489561 -100.06456267 462.53505069 -147.6171875 418.23828125 C-149.00863416 417.02489906 -150.40427389 415.81630322 -151.8046875 414.61328125 C-158.29829506 408.92488103 -163.89247583 402.84849748 -169.30078125 396.11328125 C-170.79214128 394.26228465 -172.30380496 392.42737276 -173.83984375 390.61328125 C-184.54843264 377.92162035 -192.91038293 363.9027082 -200.6171875 349.23828125 C-200.96491211 348.58762695 -201.31263672 347.93697266 -201.67089844 347.26660156 C-212.84038011 326.11541724 -219.92062634 301.78709963 -223.6171875 278.23828125 C-223.79975098 277.08851807 -223.98231445 275.93875488 -224.17041016 274.75415039 C-225.80046666 263.31545021 -226.01610595 251.96776182 -225.9921875 240.42578125 C-225.99137177 238.94135529 -225.99137177 238.94135529 -225.99053955 237.42694092 C-225.95010494 221.38410509 -225.07443886 205.9590399 -221.6171875 190.23828125 C-221.40288086 189.25359863 -221.18857422 188.26891602 -220.96777344 187.25439453 C-212.94387891 151.6023741 -197.39715171 118.7958867 -174.6171875 90.23828125 C-173.80507812 89.201875 -172.99296875 88.16546875 -172.15625 87.09765625 C-158.67507695 70.51198594 -143.153048 55.46143519 -125.6171875 43.23828125 C-124.99183105 42.79484375 -124.36647461 42.35140625 -123.72216797 41.89453125 C-88.10718286 16.74793814 -43.85666441 0.40434136 0 0 Z " fill="#205389" transform="translate(241.6171875,15.76171875)"/>
<path d="M0 0 C5.10046508 2.73794001 9.41041955 5.74287757 13.75 9.5625 C14.38196289 10.11623291 15.01392578 10.66996582 15.66503906 11.24047852 C28.94496169 23.05037591 41.6455025 35.51579046 52 50 C52.4527832 50.62438965 52.90556641 51.2487793 53.37207031 51.89208984 C60.32606376 61.52751633 66.51032098 71.46263753 72 82 C72.4007373 82.76344727 72.80147461 83.52689453 73.21435547 84.31347656 C90.58262537 117.82928674 98.44748691 153.76734955 98.375 191.3125 C98.37478851 192.32479675 98.37457703 193.33709351 98.37435913 194.38006592 C98.3406615 210.57185656 97.44705475 226.12680134 94 242 C93.71116943 243.3610083 93.71116943 243.3610083 93.41650391 244.74951172 C84.570617 285.37260304 65.31748355 324.14043449 37.0625 354.75 C35.24942906 356.72789558 33.52960986 358.75196817 31.8125 360.8125 C-5.61286238 403.46199763 -64.15596934 429.10601758 -120 434 C-123.1850138 434.15722403 -126.36615418 434.20917944 -129.5546875 434.23828125 C-130.44570663 434.2480751 -131.33672577 434.25786896 -132.25474548 434.26795959 C-196.29563228 434.82661436 -256.44737517 416.29676944 -304 372 C-305.39144666 370.78661781 -306.78708639 369.57802197 -308.1875 368.375 C-314.68110756 362.68659978 -320.27528833 356.61021623 -325.68359375 349.875 C-327.17495378 348.0240034 -328.68661746 346.18909151 -330.22265625 344.375 C-336.03431327 337.4871102 -341.13111905 330.2268962 -345.95214844 322.62207031 C-346.88985358 321.17050624 -347.89788969 319.76494356 -348.9140625 318.3671875 C-350 316 -350 316 -349.5546875 313.625 C-347.44221277 310.0582085 -344.88174613 307.08468322 -342.125 304 C-341.54637207 303.34354492 -340.96774414 302.68708984 -340.37158203 302.01074219 C-338.59056123 299.99842629 -336.79801843 297.99713454 -335 296 C-334.46955078 295.41025391 -333.93910156 294.82050781 -333.39257812 294.21289062 C-324.11554081 283.94315123 -314.58081491 273.94285958 -304 265 C-303.06929687 264.19175781 -302.13859375 263.38351562 -301.1796875 262.55078125 C-265.84884787 232.00397928 -226.71021102 211.94098912 -181.00390625 202.36645508 C-171.55217881 200.376917 -162.17079914 198.15658364 -152.81884766 195.74072266 C-151.84737793 195.49757324 -150.8759082 195.25442383 -149.875 195.00390625 C-149.02679688 194.78549072 -148.17859375 194.5670752 -147.3046875 194.34204102 C-144.80488791 193.97104322 -143.35059559 194.09964652 -141 195 C-139.14297793 196.74881763 -137.48451805 198.4642487 -135.8125 200.375 C-135.32765137 200.91664795 -134.84280273 201.4582959 -134.34326172 202.01635742 C-130.57701576 206.25662876 -126.98593067 210.63120866 -123.41796875 215.0390625 C-110.66690099 230.65345565 -97.0858957 245.745116 -81 258 C-79.77732417 258.95179777 -78.55466938 259.90362256 -77.33203125 260.85546875 C-70.50349172 266.11976504 -63.54855395 271.09304727 -56.25 275.6875 C-55.58266846 276.1095874 -54.91533691 276.5316748 -54.2277832 276.96655273 C-51.17355615 278.84791891 -48.50133136 280.2506006 -45 281 C-44.57811401 279.89386353 -44.57811401 279.89386353 -44.14770508 278.76538086 C-43.11931359 276.28748459 -41.98249704 274.06923796 -40.63671875 271.75390625 C-19.73252289 235.06813971 -5.51216886 195.00386179 2.48730469 153.60327148 C2.80915019 151.96906262 3.14609894 150.33768011 3.50488281 148.71118164 C5.32508499 140.33237424 6.2238426 131.82913079 7.125 123.3125 C7.21437836 122.47095367 7.30375671 121.62940735 7.39584351 120.76235962 C8.76210221 107.55942954 9.36570692 94.45903528 9.3125 81.1875 C9.30986145 80.39977203 9.3072229 79.61204407 9.30450439 78.80044556 C9.21142791 62.12948593 8.31172351 45.64717712 6.0625 29.125 C5.89298828 27.82820313 5.72347656 26.53140625 5.54882812 25.1953125 C4.52013375 17.43512374 3.34464103 9.71167372 2 2 C1.34 2 0.68 2 0 2 C0 1.34 0 0.68 0 0 Z " fill="#F1F1F1" transform="translate(398,62)"/>
<path d="M0 0 C1.18118408 -0.00475342 2.36236816 -0.00950684 3.5793457 -0.0144043 C10.67032924 -0.00093946 17.63940641 0.34019009 24.6875 1.125 C25.2591597 15.83009651 22.8463774 29.74073054 18.875 43.875 C18.65118652 44.67679688 18.42737305 45.47859375 18.19677734 46.3046875 C14.01201945 60.49920372 7.61943809 73.81539068 1.25 87.125 C0.15294238 89.42860202 -0.94281392 91.73281342 -2.03735352 94.03761292 C-2.755133 95.5443091 -3.47676608 97.04917598 -4.20239258 98.55210876 C-5.94073021 102.16407495 -7.60817339 105.78122916 -9.13867188 109.48657227 C-9.43193863 110.17497192 -9.72520538 110.86337158 -10.02735901 111.57263184 C-10.81637104 113.43709459 -11.57806158 115.31305342 -12.33764648 117.18969727 C-15.42332144 121.77605775 -19.32955415 122.45937232 -24.51123047 123.65771484 C-25.30932129 123.77840332 -26.10741211 123.8990918 -26.9296875 124.0234375 C-34.54888338 125.29456703 -42.06484353 126.9954448 -49.6071167 128.65310669 C-52.00240916 129.17442174 -54.40010141 129.68237825 -56.79931641 130.18530273 C-69.76143372 132.90992827 -82.71495555 135.68253451 -95 140.75 C-95.83394287 141.09063477 -96.66788574 141.43126953 -97.52709961 141.78222656 C-128.29620823 154.59379957 -155.30484114 173.2708424 -179.765625 195.796875 C-181.89461386 197.74300592 -184.05406653 199.63073432 -186.25 201.5 C-194.54852111 208.72278689 -202.23460296 216.71165068 -209.3125 225.125 C-210.25593221 226.22835924 -211.19999948 227.33117564 -212.14453125 228.43359375 C-213.15921254 229.62208996 -214.17353426 230.81089325 -215.1875 232 C-215.92141968 232.85839478 -215.92141968 232.85839478 -216.67016602 233.73413086 C-219.25865958 236.745927 -219.25865958 236.745927 -221.3125 240.125 C-221.9725 240.125 -222.6325 240.125 -223.3125 240.125 C-237.63310116 214.2599983 -247.35304773 187.29277866 -252.3125 158.125 C-252.43109375 157.44550293 -252.5496875 156.76600586 -252.671875 156.06591797 C-253.45325114 151.4346365 -253.96338839 146.80568156 -254.3125 142.125 C-254.38581543 141.20686523 -254.45913086 140.28873047 -254.53466797 139.34277344 C-255.77112322 121.75826669 -255.77112322 121.75826669 -252.546875 115.9375 C-250.25 113.6875 -250.25 113.6875 -247.96484375 112.06640625 C-244.87281166 109.80316627 -242.6871911 107.21308587 -240.21118164 104.30786133 C-236.99226091 100.60715794 -233.53141188 97.15247128 -230.0625 93.6875 C-229.31524658 92.94105225 -228.56799316 92.19460449 -227.7980957 91.42553711 C-223.02044373 86.70046044 -218.17796023 82.28190471 -212.8828125 78.140625 C-210.13686275 75.98726623 -207.51601529 73.71804245 -204.875 71.4375 C-190.77613536 59.70666172 -175.36591991 49.93120672 -159.3125 41.125 C-158.50796387 40.67560059 -157.70342773 40.22620117 -156.87451172 39.76318359 C-130.9638191 25.33651117 -103.10110691 15.06802971 -74.3125 8.125 C-73.5592041 7.94195312 -72.8059082 7.75890625 -72.02978516 7.5703125 C-58.26996618 4.28864472 -44.37708909 2.5270159 -30.3125 1.125 C-29.57999023 1.05152344 -28.84748047 0.97804687 -28.09277344 0.90234375 C-18.74692564 0.01986289 -9.37939012 0.03101932 0 0 Z " fill="#173E67" transform="translate(270.3125,135.875)"/>
<path d="M0 0 C3.77154446 3.57093039 6.80861212 7.33994208 9.75 11.625 C16.1669799 20.77667263 23.22143176 29.27073763 30.75 37.53125 C33.021257 40.02332365 35.25991865 42.54240848 37.5 45.0625 C44.23863522 52.53945525 51.3384281 59.47838516 59 66 C59.91007813 66.79921875 60.82015625 67.5984375 61.7578125 68.421875 C110.75391503 111.13602223 171.74420784 136.10080839 235.40625 146.5703125 C236.63108345 146.77197273 236.63108345 146.77197273 237.88066101 146.97770691 C241.97011888 147.6481556 246.06109944 148.30608917 250.15551758 148.94555664 C251.66227631 149.18633455 253.16903105 149.42713743 254.67578125 149.66796875 C255.37155273 149.77299713 256.06732422 149.87802551 256.78417969 149.98623657 C260.16702 150.53277922 262.09432271 151.06288181 265 153 C233.64520015 176.35460528 197.71646701 191.92645848 159 198 C157.84443604 198.18256348 156.68887207 198.36512695 155.49829102 198.55322266 C144.22828263 200.15355387 133.0592251 200.39916633 121.6875 200.375 C120.72155914 200.37445618 119.75561829 200.37391235 118.76040649 200.37335205 C59.68644624 200.22090627 2.36763472 178.39831919 -41 138 C-42.39144666 136.78661781 -43.78708639 135.57802197 -45.1875 134.375 C-51.68110756 128.68659978 -57.27528833 122.61021623 -62.68359375 115.875 C-64.17495378 114.0240034 -65.68661746 112.18909151 -67.22265625 110.375 C-73.03431327 103.4871102 -78.13111905 96.2268962 -82.95214844 88.62207031 C-83.88985358 87.17050624 -84.89788969 85.76494356 -85.9140625 84.3671875 C-87 82 -87 82 -86.5546875 79.625 C-84.44221277 76.0582085 -81.88174613 73.08468322 -79.125 70 C-78.54637207 69.34354492 -77.96774414 68.68708984 -77.37158203 68.01074219 C-75.59056123 65.99842629 -73.79801843 63.99713454 -72 62 C-71.46955078 61.41025391 -70.93910156 60.82050781 -70.39257812 60.21289062 C-61.11554081 49.94315123 -51.58081491 39.94285958 -41 31 C-39.60394531 29.78763672 -39.60394531 29.78763672 -38.1796875 28.55078125 C-26.11909667 18.12578145 -13.40385891 8.63127279 0 0 Z " fill="#FEC139" transform="translate(135,296)"/>
<path d="M0 0 C0.9624765 0.00141495 1.924953 0.0028299 2.91659546 0.00428772 C5.95224282 0.00982818 8.98781291 0.02236909 12.0234375 0.03515625 C14.09765518 0.04017896 16.17187402 0.04474051 18.24609375 0.04882812 C23.29690419 0.05977801 28.3476578 0.07700061 33.3984375 0.09765625 C33.3984375 0.42765625 33.3984375 0.75765625 33.3984375 1.09765625 C29.7684375 1.09765625 26.1384375 1.09765625 22.3984375 1.09765625 C23.171875 2.51433594 23.9453125 3.93101563 24.7421875 5.390625 C34.02320516 22.62829375 41.6309212 40.07054165 46.3984375 59.09765625 C46.56827148 59.77280273 46.73810547 60.44794922 46.91308594 61.14355469 C49.13774213 70.06229387 51.15420929 78.98204744 52.3984375 88.09765625 C52.51058594 88.89171875 52.62273437 89.68578125 52.73828125 90.50390625 C53.90797549 100.63057419 53.4859732 110.92062157 53.3984375 121.09765625 C52.31240234 121.08718262 51.22636719 121.07670898 50.10742188 121.06591797 C19.69913104 120.79750074 19.69913104 120.79750074 -10.6015625 123.09765625 C-11.49294922 123.1941748 -12.38433594 123.29069336 -13.30273438 123.39013672 C-91.65982506 131.9542911 -170.94458618 173.32388241 -221.171875 234.546875 C-222.81987205 236.3344565 -224.62309195 237.69234777 -226.6015625 239.09765625 C-228.56286355 185.21635802 -209.04693175 132.02571418 -175.6015625 90.09765625 C-174.78945312 89.06125 -173.97734375 88.02484375 -173.140625 86.95703125 C-159.65945195 70.37136094 -144.137423 55.32081019 -126.6015625 43.09765625 C-125.97620605 42.65421875 -125.35084961 42.21078125 -124.70654297 41.75390625 C-88.94299403 16.50241701 -44.0999052 -0.24989442 0 0 Z " fill="#F1F1F1" transform="translate(242.6015625,15.90234375)"/>
<path d="M0 0 C5.10046508 2.73794001 9.41041955 5.74287757 13.75 9.5625 C14.38196289 10.11623291 15.01392578 10.66996582 15.66503906 11.24047852 C28.94496169 23.05037591 41.6455025 35.51579046 52 50 C52.4527832 50.62438965 52.90556641 51.2487793 53.37207031 51.89208984 C60.32606376 61.52751633 66.51032098 71.46263753 72 82 C72.4007373 82.76344727 72.80147461 83.52689453 73.21435547 84.31347656 C90.58262537 117.82928674 98.44748691 153.76734955 98.375 191.3125 C98.37478851 192.32479675 98.37457703 193.33709351 98.37435913 194.38006592 C98.3406615 210.57185656 97.44705475 226.12680134 94 242 C93.80744629 242.90733887 93.61489258 243.81467773 93.41650391 244.74951172 C88.06215885 269.33834611 78.4288871 291.68935337 67 314 C53.04779377 314.79474592 38.00031904 312.91801774 24.65625 308.80078125 C21.99810828 307.9994297 19.3225219 307.35269992 16.61962891 306.72167969 C-5.77942792 301.42486478 -26.61559179 292.56508962 -47 282 C-46.34 281.67 -45.68 281.34 -45 281 C-44.29726031 279.3482194 -43.63525217 277.67889157 -43 276 C-42.23962879 274.56973464 -41.45071856 273.15434464 -40.63671875 271.75390625 C-19.73252289 235.06813971 -5.51216886 195.00386179 2.48730469 153.60327148 C2.80915019 151.96906262 3.14609894 150.33768011 3.50488281 148.71118164 C5.32508499 140.33237424 6.2238426 131.82913079 7.125 123.3125 C7.21437836 122.47095367 7.30375671 121.62940735 7.39584351 120.76235962 C8.76210221 107.55942954 9.36570692 94.45903528 9.3125 81.1875 C9.30854218 80.00590805 9.30854218 80.00590805 9.30450439 78.80044556 C9.21142791 62.12948593 8.31172351 45.64717712 6.0625 29.125 C5.89298828 27.82820313 5.72347656 26.53140625 5.54882812 25.1953125 C4.52013375 17.43512374 3.34464103 9.71167372 2 2 C1.34 2 0.68 2 0 2 C0 1.34 0 0.68 0 0 Z " fill="#FED45C" transform="translate(398,62)"/>
<path d="M0 0 C1.64384742 2.99796292 2.52846765 5.78701274 3.26171875 9.12109375 C3.48947998 10.12793213 3.71724121 11.13477051 3.9519043 12.17211914 C4.19465088 13.24969482 4.43739746 14.32727051 4.6875 15.4375 C11.02935788 42.45992111 20.70862429 71.01390368 37.78125 93.328125 C39 95 39 95 39 97 C39.66 97 40.32 97 41 97 C41 97.99 41 98.98 41 100 C41.66 100 42.32 100 43 100 C43.33 100.99 43.66 101.98 44 103 C44.66 103.33 45.32 103.66 46 104 C44.48601922 107.81488941 42.27002932 109.63076629 39.0625 112.125 C34.03630896 116.12490073 29.27089949 120.32150216 24.546875 124.671875 C22.41788614 126.61800592 20.25843347 128.50573432 18.0625 130.375 C9.76397889 137.59778689 2.07789704 145.58665068 -5 154 C-5.94343221 155.10335924 -6.88749948 156.20617564 -7.83203125 157.30859375 C-8.84671254 158.49708996 -9.86103426 159.68589325 -10.875 160.875 C-11.60891968 161.73339478 -11.60891968 161.73339478 -12.35766602 162.60913086 C-14.94615958 165.620927 -14.94615958 165.620927 -17 169 C-17.66 169 -18.32 169 -19 169 C-33.32060116 143.1349983 -43.04054773 116.16777866 -48 87 C-48.11859375 86.32050293 -48.2371875 85.64100586 -48.359375 84.94091797 C-49.14075114 80.3096365 -49.65088839 75.68068156 -50 71 C-50.07331543 70.08186523 -50.14663086 69.16373047 -50.22216797 68.21777344 C-51.45862322 50.63326669 -51.45862322 50.63326669 -48.234375 44.8125 C-45.9375 42.5625 -45.9375 42.5625 -43.65234375 40.94140625 C-40.56031166 38.67816627 -38.3746911 36.08808587 -35.89868164 33.18286133 C-32.67974588 29.48214066 -29.218728 26.02767923 -25.75 22.5625 C-25.00709717 21.81967773 -24.26419434 21.07685547 -23.4987793 20.31152344 C-17.93572327 14.80574392 -12.19625697 9.78703881 -6 5 C-4.76584809 3.98519931 -3.53577264 2.96538882 -2.3125 1.9375 C-1.549375 1.298125 -0.78625 0.65875 0 0 Z " fill="#122F4C" transform="translate(66,207)"/>
<path d="M0 0 C1.58742082 0.22341598 3.17531499 0.44349529 4.76367188 0.66015625 C8.61981507 1.1934644 12.46674681 1.77148218 16.3125 2.375 C13.24115049 8.87169924 9.89081551 14.86005004 5.6875 20.6875 C4.90536133 21.78143066 4.90536133 21.78143066 4.10742188 22.89746094 C-0.81609109 29.69929112 -6.09620271 36.11570724 -11.6875 42.375 C-12.40655518 43.18662598 -12.40655518 43.18662598 -13.14013672 44.01464844 C-19.35627283 51.00344638 -25.78981096 57.67167175 -32.8203125 63.84765625 C-34.66855181 65.47682632 -36.47994401 67.14926869 -38.2421875 68.87109375 C-44.063246 74.23651029 -44.063246 74.23651029 -48.1328125 74.58349609 C-49.01710938 74.48117676 -49.90140625 74.37885742 -50.8125 74.2734375 C-51.86824219 74.15162109 -52.92398438 74.02980469 -54.01171875 73.90429688 C-61.59383144 72.81250488 -69.14388721 71.58173098 -76.6875 70.25 C-77.56744629 70.095383 -78.44739258 69.94076599 -79.35400391 69.78146362 C-116.2950879 63.24712898 -151.44115767 52.54624661 -185.125 35.875 C-185.97803711 35.4536377 -186.83107422 35.03227539 -187.70996094 34.59814453 C-188.48500977 34.20481934 -189.26005859 33.81149414 -190.05859375 33.40625 C-190.73849365 33.06142578 -191.41839355 32.71660156 -192.11889648 32.36132812 C-193.6875 31.375 -193.6875 31.375 -194.6875 29.375 C-189.5659101 29.72283632 -184.49653949 30.20558867 -179.44140625 31.109375 C-129.29724132 39.81567896 -77.40814143 29.32914284 -32.48828125 6.39453125 C-31.58903931 5.94255371 -31.58903931 5.94255371 -30.67163086 5.48144531 C-28.58762413 4.36781417 -28.58762413 4.36781417 -26.40844727 2.74511719 C-17.54306286 -3.14775103 -9.9674983 -1.57617787 0 0 Z " fill="#CCCCCA" transform="translate(447.6875,373.625)"/>
<path d="M0 0 C1.55474568 3.10949136 0.21081244 5.27972415 -0.75 8.5625 C-3.10317551 16.94938051 -4.73742848 25.38052138 -6 34 C-6.25813477 35.70663818 -6.25813477 35.70663818 -6.52148438 37.44775391 C-7.86135537 47.04499715 -8.3128708 56.45033407 -8.26074219 66.13623047 C-8.25000621 68.49863323 -8.26072339 70.860276 -8.2734375 73.22265625 C-8.28040393 82.16569524 -7.71689361 90.81009838 -6.42871094 99.66210938 C-5.71588289 105.21210086 -5.71588289 105.21210086 -6 108 C-8.04079169 110.10720799 -9.9623576 111.82799045 -12.25 113.625 C-13.548269 114.69101288 -14.84512102 115.75875356 -16.140625 116.828125 C-16.79353516 117.36115234 -17.44644531 117.89417969 -18.11914062 118.44335938 C-30.04165275 128.31069288 -41.74506566 139.4730395 -51.5703125 151.44921875 C-53.21830955 153.23680025 -55.02152945 154.59469152 -57 156 C-59.07254226 99.06265853 -37.25385679 42.72852563 0 0 Z " fill="#CCCBCB" transform="translate(73,99)"/>
<path d="M0 0 C3.77154446 3.57093039 6.80861212 7.33994208 9.75 11.625 C16.1669799 20.77667263 23.22143176 29.27073763 30.75 37.53125 C33.021257 40.02332365 35.25991865 42.54240848 37.5 45.0625 C44.23863522 52.53945525 51.3384281 59.47838516 59 66 C59.91007812 66.79921875 60.82015625 67.5984375 61.7578125 68.421875 C77.23258022 81.91257064 94.3458943 93.55095485 112 104 C108.0633529 105.3122157 105.38655241 104.23027234 101.5625 103.0625 C100.81170166 102.83506104 100.06090332 102.60762207 99.28735352 102.37329102 C74.58200385 94.66509993 50.93845976 83.21796988 30 68 C29.38560059 67.55382324 28.77120117 67.10764648 28.13818359 66.64794922 C21.54081828 61.80699011 15.29406619 56.63310867 9.2734375 51.08984375 C7.15369788 49.14128585 4.99516531 47.25242667 2.8125 45.375 C-4.62233672 38.86208303 -10.81184836 31.7033813 -17 24 C-18.65772044 21.99227362 -20.32787837 19.99575807 -22 18 C-20.60786351 14.68224569 -19.14309778 13.08286502 -16.19140625 11.0546875 C-15.44439453 10.53519531 -14.69738281 10.01570313 -13.92773438 9.48046875 C-13.14720703 8.95066406 -12.36667969 8.42085938 -11.5625 7.875 C-10.78583984 7.33746094 -10.00917969 6.79992187 -9.20898438 6.24609375 C-6.15644914 4.13745184 -3.08695091 2.05796727 0 0 Z " fill="#FED45D" transform="translate(135,296)"/>
<path d="M0 0 C1 2 1 2 -0.01171875 5.69140625 C-0.55752864 7.31944601 -1.11729276 8.94284399 -1.6875 10.5625 C-1.99131592 11.43132812 -2.29513184 12.30015625 -2.6081543 13.1953125 C-6.84521244 24.85773047 -12.45143495 35.91844637 -18 47 C-18.57463989 48.14952148 -18.57463989 48.14952148 -19.16088867 49.32226562 C-19.43779541 49.87591797 -19.71470215 50.42957031 -20 51 C-31.47920364 51.65387869 -42.68264357 49.70394795 -54 48 C-54 47.34 -54 46.68 -54 46 C-51.73769183 44.37717094 -49.47273326 42.86487002 -47.125 41.375 C-40.7751687 37.23881004 -34.794326 32.89550736 -29 28 C-28.18982422 27.32300049 -28.18982422 27.32300049 -27.36328125 26.63232422 C-17.50822722 18.38986595 -8.22365283 9.91055597 0 0 Z " fill="#FEC23A" transform="translate(485,325)"/>
</svg>
